<svg width="69" height="76" viewBox="0 0 69 76" fill="none" xmlns="http://www.w3.org/2000/svg">
<path d="M66.4196 42.9998H12.7496C12.4211 43.0016 12.1024 43.1112 11.8422 43.3117C11.5821 43.5122 11.395 43.7926 11.3096 44.1098L5.30957 65.5598L3.14957 28.6298C3.1385 28.5205 3.15157 28.4101 3.18786 28.3064C3.22414 28.2027 3.28276 28.1083 3.35957 28.0298C3.43775 27.9507 3.53137 27.8886 3.6346 27.8473C3.73782 27.806 3.84844 27.7865 3.95957 27.7898H14.9996C15.2904 27.7909 15.5771 27.8592 15.8373 27.9893C16.0975 28.1194 16.3241 28.3078 16.4996 28.5398L20.1596 33.2498C20.2977 33.4282 20.4752 33.5725 20.6781 33.6713C20.8809 33.7701 21.1039 33.8209 21.3296 33.8198H53.9996V38.3198C53.9996 38.7176 54.1576 39.0991 54.4389 39.3804C54.7202 39.6617 55.1017 39.8198 55.4996 39.8198C55.8974 39.8198 56.2789 39.6617 56.5602 39.3804C56.8415 39.0991 56.9996 38.7176 56.9996 38.3198V32.3198C57.0036 32.1203 56.9677 31.922 56.8941 31.7365C56.8205 31.5511 56.7107 31.3821 56.571 31.2397C56.4313 31.0972 56.2646 30.984 56.0806 30.9067C55.8966 30.8295 55.6991 30.7897 55.4996 30.7898H21.8996L18.7196 26.6798C18.2746 26.1104 17.7118 25.644 17.0697 25.3126C16.4276 24.9812 15.7214 24.7926 14.9996 24.7598H3.95957C3.43603 24.7686 2.91954 24.8819 2.44042 25.0932C1.9613 25.3044 1.52922 25.6092 1.16957 25.9898C0.81617 26.3654 0.543371 26.8093 0.367955 27.2943C0.19254 27.7793 0.11822 28.295 0.149568 28.8098L2.99957 74.4998C3.03789 74.8169 3.13993 75.123 3.29957 75.3998C3.43763 75.5878 3.61846 75.7403 3.82713 75.8447C4.03579 75.949 4.26629 76.0022 4.49957 75.9998H55.2296C56.5032 75.9989 57.7403 75.5738 58.7453 74.7914C59.7504 74.0091 60.4662 72.9142 60.7796 71.6798L62.9996 63.0098C63.0508 62.8128 63.0627 62.6076 63.0346 62.4061C63.0066 62.2045 62.9391 62.0104 62.836 61.8349C62.7329 61.6594 62.5963 61.5059 62.4339 61.3832C62.2715 61.2605 62.0865 61.171 61.8896 61.1198C61.6926 61.0686 61.4874 61.0566 61.2859 61.0847C61.0843 61.1128 60.8902 61.1803 60.7147 61.2833C60.5392 61.3864 60.3857 61.523 60.263 61.6854C60.1403 61.8478 60.0508 62.0328 59.9996 62.2298L57.7196 70.9298C57.5577 71.5168 57.2101 72.0357 56.7289 72.4089C56.2476 72.782 55.6585 72.9893 55.0496 72.9998H6.47957L13.8896 45.9998H64.4696L62.4296 53.7398C62.3301 54.1376 62.3928 54.5586 62.6037 54.9103C62.8147 55.2619 63.1567 55.5153 63.5546 55.6148C63.9524 55.7142 64.3734 55.6516 64.7251 55.4406C65.0767 55.2296 65.3301 54.8876 65.4296 54.4898L67.9496 44.8598C68.0092 44.6381 68.0173 44.4058 67.973 44.1805C67.9288 43.9553 67.8334 43.7432 67.6943 43.5607C67.5552 43.3781 67.3761 43.2299 67.1707 43.1274C66.9653 43.025 66.7391 42.9711 66.5096 42.9698L66.4196 42.9998Z" fill="#A7B2B9"/>
<path d="M33.4496 64.3902C33.309 64.5297 33.1974 64.6956 33.1212 64.8784C33.0451 65.0612 33.0059 65.2572 33.0059 65.4552C33.0059 65.6533 33.0451 65.8493 33.1212 66.0321C33.1974 66.2149 33.309 66.3808 33.4496 66.5202C33.5842 66.6637 33.7469 66.7781 33.9275 66.8563C34.1081 66.9345 34.3028 66.9748 34.4996 66.9748C34.6963 66.9748 34.8911 66.9345 35.0716 66.8563C35.2522 66.7781 35.4149 66.6637 35.5496 66.5202C36.067 66.0036 36.7684 65.7135 37.4996 65.7135C38.2308 65.7135 38.9321 66.0036 39.4496 66.5202C39.5842 66.6637 39.7469 66.7781 39.9275 66.8563C40.1081 66.9345 40.3028 66.9748 40.4996 66.9748C40.6963 66.9748 40.8911 66.9345 41.0716 66.8563C41.2522 66.7781 41.4149 66.6637 41.5496 66.5202C41.6902 66.3808 41.8017 66.2149 41.8779 66.0321C41.9541 65.8493 41.9933 65.6533 41.9933 65.4552C41.9933 65.2572 41.9541 65.0612 41.8779 64.8784C41.8017 64.6956 41.6902 64.5297 41.5496 64.3902C41.0196 63.8551 40.3888 63.4303 39.6936 63.1404C38.9985 62.8504 38.2527 62.7012 37.4996 62.7012C36.7464 62.7012 36.0007 62.8504 35.3055 63.1404C34.6104 63.4303 33.9796 63.8551 33.4496 64.3902Z" fill="#A7B2B9"/>
<path d="M25.5 55C25.1022 55 24.7206 55.158 24.4393 55.4393C24.158 55.7206 24 56.1022 24 56.5C24 56.8978 24.158 57.2794 24.4393 57.5607C24.7206 57.842 25.1022 58 25.5 58H28.5C28.8978 58 29.2794 57.842 29.5607 57.5607C29.842 57.2794 30 56.8978 30 56.5C30 56.1022 29.842 55.7206 29.5607 55.4393C29.2794 55.158 28.8978 55 28.5 55H25.5Z" fill="#A7B2B9"/>
<path d="M46.5 55C46.1022 55 45.7206 55.158 45.4393 55.4393C45.158 55.7206 45 56.1022 45 56.5C45 56.8978 45.158 57.2794 45.4393 57.5607C45.7206 57.842 46.1022 58 46.5 58H49.5C49.8978 58 50.2794 57.842 50.5607 57.5607C50.842 57.2794 51 56.8978 51 56.5C51 56.1022 50.842 55.7206 50.5607 55.4393C50.2794 55.158 49.8978 55 49.5 55H46.5Z" fill="#A7B2B9"/>
<path d="M32.9995 25.9C32.9414 26.1845 32.9609 26.4795 33.0559 26.7539C33.1509 27.0284 33.318 27.2722 33.5395 27.46C33.8046 27.6697 34.1316 27.7857 34.4695 27.79C34.6872 27.8353 34.9119 27.8353 35.1295 27.79L43.1695 23.74C45.6939 24.5288 48.3248 24.9235 50.9695 24.91C61.0495 24.91 68.9695 19.63 68.9695 12.91C68.9695 7.35996 63.6595 2.70996 55.7395 1.26996C55.3417 1.19835 54.9317 1.28771 54.5998 1.51838C54.2679 1.74905 54.0411 2.10214 53.9695 2.49996C53.8979 2.89779 53.9873 3.30776 54.218 3.6397C54.4486 3.97164 54.8017 4.19835 55.1995 4.26996C61.5595 5.19996 65.9995 8.76996 65.9995 12.73C65.9995 17.62 59.1295 21.73 50.9995 21.73C48.4706 21.7388 45.9574 21.3335 43.5595 20.53C43.3805 20.4488 43.1861 20.4067 42.9895 20.4067C42.7929 20.4067 42.5986 20.4488 42.4195 20.53L36.7495 23.53L38.0395 18.28C38.1001 18.0452 38.1017 17.799 38.0441 17.5635C37.9866 17.328 37.8716 17.1103 37.7095 16.93C36.6355 15.7923 36.0256 14.2943 35.9995 12.73C35.9995 8.70996 40.6795 5.04996 47.0995 3.99996C47.496 3.93363 47.8505 3.7139 48.0863 3.3883C48.3221 3.06269 48.4202 2.65737 48.3595 2.25996C48.2932 1.86346 48.0735 1.509 47.7479 1.27322C47.4223 1.03743 47.0169 0.939274 46.6195 0.999963C38.6095 2.31996 32.9995 6.99996 32.9995 12.7C33.0229 14.6955 33.7088 16.6268 34.9495 18.19L32.9995 25.9Z" fill="#A7B2B9"/>
<path d="M47.6992 11.5299L48.8692 12.7299L47.6992 13.8999C47.4134 14.1866 47.2529 14.575 47.2529 14.9799C47.2529 15.3847 47.4134 15.7731 47.6992 16.0599C47.9831 16.3278 48.3588 16.477 48.7492 16.477C49.1396 16.477 49.5152 16.3278 49.7992 16.0599L50.9992 14.8599L52.1992 16.0599C52.4831 16.3278 52.8588 16.477 53.2492 16.477C53.6396 16.477 54.0152 16.3278 54.2992 16.0599C54.585 15.7731 54.7454 15.3847 54.7454 14.9799C54.7454 14.575 54.585 14.1866 54.2992 13.8999L53.1292 12.7299L54.2992 11.5299C54.4398 11.3904 54.5514 11.2245 54.6275 11.0417C54.7037 10.8589 54.7429 10.6629 54.7429 10.4649C54.7429 10.2669 54.7037 10.0708 54.6275 9.888C54.5514 9.70521 54.4398 9.53931 54.2992 9.39987C54.1645 9.25638 54.0019 9.14201 53.8213 9.06383C53.6407 8.98565 53.446 8.94531 53.2492 8.94531C53.0524 8.94531 52.8577 8.98565 52.6771 9.06383C52.4965 9.14201 52.3339 9.25638 52.1992 9.39987L50.9992 10.5999L49.7992 9.39987C49.6645 9.25638 49.5019 9.14201 49.3213 9.06383C49.1407 8.98565 48.946 8.94531 48.7492 8.94531C48.5524 8.94531 48.3577 8.98565 48.1771 9.06383C47.9965 9.14201 47.8339 9.25638 47.6992 9.39987C47.5586 9.53931 47.447 9.70521 47.3708 9.888C47.2947 10.0708 47.2555 10.2669 47.2555 10.4649C47.2555 10.6629 47.2947 10.8589 47.3708 11.0417C47.447 11.2245 47.5586 11.3904 47.6992 11.5299Z" fill="#A7B2B9"/>
</svg>
