<svg width="38" height="74" viewBox="0 0 38 74" fill="none" xmlns="http://www.w3.org/2000/svg">
<path d="M37.2924 66.5L26.7924 42.7V25.1C28.1924 24.6 28.9924 23.2 28.4924 21.8C28.0924 20.7 27.0924 20 25.9924 20H12.0924C10.5924 20 9.39242 21.2 9.39242 22.6C9.39242 23.7 10.0924 24.8 11.1924 25.1V42.7L0.692416 66.5C-0.00758371 68 0.192416 69.7 1.09242 71.1C2.19242 72.7 3.99241 73.6 5.89242 73.6H32.2924C34.1924 73.6 35.9924 72.7 37.0924 71.1C37.7924 69.7 37.9924 68 37.2924 66.5ZM12.0924 21.6H25.9924C26.5924 21.6 27.0924 22.1 27.0924 22.7C27.0924 23.3 26.5924 23.8 25.9924 23.8H12.0924C11.4924 23.8 10.9924 23.3 10.9924 22.7C10.9924 22 11.4924 21.6 12.0924 21.6ZM12.6924 43.2C12.6924 43.1 12.7924 43 12.7924 42.9V25.3H25.2924V42.9C25.2924 43 25.2924 43.1 25.3924 43.2L31.4924 57.1C29.2924 56.3 27.2924 57.3 25.4924 58.3C23.8924 59.3 22.0924 59.9 20.1924 60C18.3924 59.9 16.5924 59.4 14.9924 58.4C14.0924 57.9 13.1924 57.5 12.2924 57.2L13.0924 55.4C13.1924 55 13.0924 54.6 12.6924 54.4C12.2924 54.2 11.8924 54.4 11.6924 54.8L10.6924 56.9C9.29242 56.7 7.79242 56.9 6.49242 57.4L12.6924 43.2ZM35.5924 70.2C34.7924 71.3 33.4924 72 32.1924 72H5.79241C4.39241 72 3.09242 71.4 2.39242 70.2C1.79242 69.3 1.69242 68.1 2.09242 67.1L5.59242 59.3C6.99242 58.6 8.49242 58.2 9.99242 58.3L6.49242 66.3C6.29242 66.7 6.49242 67.2 6.89242 67.3C6.99242 67.3 7.09242 67.4 7.19242 67.4C7.49242 67.4 7.89242 67.2 7.99242 66.9L11.6924 58.6C12.5924 58.9 13.4924 59.3 14.2924 59.8C16.0924 60.9 18.0924 61.5 20.1924 61.6C22.2924 61.5 24.3924 60.8 26.1924 59.7C28.4924 58.5 30.1924 57.6 32.5924 59.5L35.8924 67.1C36.2924 68.2 36.1924 69.3 35.5924 70.2Z" fill="#A7B2B9"/>
<path d="M13.4921 52.3C13.5921 52.3 13.6921 52.4 13.7921 52.4C14.0921 52.4 14.3921 52.2 14.4921 51.9L15.1921 50.3C15.3921 49.9 15.1921 49.4 14.7921 49.3C14.3921 49.2 13.8921 49.3 13.7921 49.7L13.0921 51.3C12.8921 51.7 13.0921 52.1 13.4921 52.3Z" fill="#A7B2B9"/>
<path d="M20.5925 37.5C21.8925 37.5 22.8925 36.5 22.8925 35.2C22.8925 33.9 21.8925 32.9 20.5925 32.9C19.2925 32.9 18.2925 33.9 18.2925 35.2C18.1925 36.5 19.2925 37.5 20.5925 37.5ZM20.5925 34.5C20.9925 34.5 21.3925 34.8 21.3925 35.2C21.3925 35.6 21.0925 36 20.6925 36C20.2925 36 19.8925 35.7 19.8925 35.3C19.7925 34.8 20.0925 34.5 20.5925 34.5Z" fill="#A7B2B9"/>
<path d="M16.7921 14.6C18.6921 14.6 20.0921 13.1 20.0921 11.2C20.0921 9.30002 18.5921 7.90002 16.6921 7.90002C14.7921 7.90002 13.3921 9.40002 13.3921 11.3C13.3921 13.1 14.8921 14.6 16.7921 14.6ZM16.7921 9.50002C17.7921 9.50002 18.5921 10.3 18.5921 11.2C18.5921 12.2 17.7921 13 16.8921 13C15.9921 13 14.9921 12.2 14.9921 11.3C14.9921 10.3 15.7921 9.50002 16.7921 9.50002C16.6921 9.50002 16.6921 9.50002 16.7921 9.50002Z" fill="#A7B2B9"/>
<path d="M22.3923 4.6C23.6923 4.6 24.6923 3.6 24.6923 2.3C24.6923 1 23.6923 0 22.3923 0C21.0923 0 20.0923 1 20.0923 2.3C20.0923 3.6 21.0923 4.6 22.3923 4.6ZM22.3923 1.6C22.7923 1.6 23.0923 1.9 23.0923 2.3C23.0923 2.7 22.7923 3 22.3923 3C21.9923 3 21.6923 2.7 21.6923 2.3C21.6923 1.9 21.9923 1.6 22.3923 1.6Z" fill="#A7B2B9"/>
<path d="M28.9924 61C27.6924 61 26.6924 62 26.6924 63.3C26.6924 64.6 27.6924 65.6 28.9924 65.6C30.2924 65.6 31.2924 64.6 31.2924 63.3C31.2924 62 30.2924 61 28.9924 61ZM28.9924 64.1C28.5924 64.1 28.1924 63.8 28.1924 63.4C28.1924 63 28.4924 62.6 28.8924 62.6C29.2924 62.6 29.6924 62.9 29.6924 63.3C29.7924 63.7 29.3924 64.1 28.9924 64.1Z" fill="#A7B2B9"/>
</svg>
