<svg width="169" height="83" viewBox="0 0 169 83" fill="none" xmlns="http://www.w3.org/2000/svg">
<path d="M65 4L105 44" stroke="#73849D" stroke-width="3.5" stroke-linecap="round" stroke-linejoin="round"/>
<path d="M81.82 20.8199C81.4484 21.1916 81.0072 21.4864 80.5216 21.6875C80.036 21.8886 79.5156 21.9921 78.99 21.9921C78.4644 21.9921 77.944 21.8886 77.4584 21.6875C76.9728 21.4864 76.5316 21.1916 76.16 20.8199C75.7884 20.4483 75.4936 20.0071 75.2924 19.5215C75.0913 19.0359 74.9878 18.5155 74.9878 17.9899C74.9878 17.4643 75.0913 16.9439 75.2924 16.4583C75.4936 15.9728 75.7884 15.5316 76.16 15.1599" stroke="#73849D" stroke-width="3.5" stroke-linecap="round" stroke-linejoin="round"/>
<path d="M88 27L73 42" stroke="#73849D" stroke-width="3.5" stroke-linecap="round" stroke-linejoin="round"/>
<path d="M97 24L103 30" stroke="#73849D" stroke-width="3.5" stroke-linecap="round" stroke-linejoin="round"/>
<path d="M68.18 7.17993C67.8072 7.54901 67.511 7.98816 67.3085 8.47212C67.106 8.95609 67.0011 9.47531 67 9.99993V37.9999C67 39.0608 67.4214 40.0782 68.1716 40.8284C68.9217 41.5785 69.9391 41.9999 71 41.9999H99C100.1 41.9999 101.104 41.5599 101.82 40.8199" stroke="#73849D" stroke-width="3.5" stroke-linecap="round" stroke-linejoin="round"/>
<path d="M103 30V10C103 8.93913 102.579 7.92172 101.828 7.17157C101.078 6.42143 100.061 6 99 6H79" stroke="#73849D" stroke-width="3.5" stroke-linecap="round" stroke-linejoin="round"/>
<path d="M1.28588 79V67.8H8.10188V68.904H2.62988V72.84H7.28588V73.928H2.62988V79H1.28588ZM11.5259 79.192C10.8645 79.192 10.3152 79.08 9.87788 78.856C9.44054 78.632 9.11521 78.3333 8.90188 77.96C8.68854 77.5867 8.58188 77.1813 8.58188 76.744C8.58188 75.9333 8.89121 75.3093 9.50988 74.872C10.1285 74.4347 10.9712 74.216 12.0379 74.216H14.1819V74.12C14.1819 73.4267 14.0005 72.904 13.6379 72.552C13.2752 72.1893 12.7899 72.008 12.1819 72.008C11.6592 72.008 11.2059 72.1413 10.8219 72.408C10.4485 72.664 10.2139 73.0427 10.1179 73.544H8.74188C8.79521 72.968 8.98721 72.4827 9.31788 72.088C9.65921 71.6933 10.0805 71.3947 10.5819 71.192C11.0832 70.9787 11.6165 70.872 12.1819 70.872C13.2912 70.872 14.1232 71.1707 14.6779 71.768C15.2432 72.3547 15.5259 73.1387 15.5259 74.12V79H14.3259L14.2459 77.576C14.0219 78.024 13.6912 78.408 13.2539 78.728C12.8272 79.0373 12.2512 79.192 11.5259 79.192ZM11.7339 78.056C12.2459 78.056 12.6832 77.9227 13.0459 77.656C13.4192 77.3893 13.7019 77.0427 13.8939 76.616C14.0859 76.1893 14.1819 75.7413 14.1819 75.272V75.256H12.1499C11.3605 75.256 10.8005 75.3947 10.4699 75.672C10.1499 75.9387 9.98988 76.2747 9.98988 76.68C9.98988 77.096 10.1392 77.432 10.4379 77.688C10.7472 77.9333 11.1792 78.056 11.7339 78.056ZM18.0381 69.304C17.7715 69.304 17.5475 69.2187 17.3661 69.048C17.1955 68.8667 17.1101 68.6427 17.1101 68.376C17.1101 68.12 17.1955 67.9067 17.3661 67.736C17.5475 67.5653 17.7715 67.48 18.0381 67.48C18.2941 67.48 18.5128 67.5653 18.6941 67.736C18.8755 67.9067 18.9661 68.12 18.9661 68.376C18.9661 68.6427 18.8755 68.8667 18.6941 69.048C18.5128 69.2187 18.2941 69.304 18.0381 69.304ZM17.3661 79V71.064H18.7101V79H17.3661ZM20.7303 79V67.48H22.0743V79H20.7303ZM27.5251 79.192C26.7678 79.192 26.0958 79.0213 25.5091 78.68C24.9225 78.328 24.4585 77.8427 24.1171 77.224C23.7865 76.6053 23.6211 75.8747 23.6211 75.032C23.6211 74.2 23.7865 73.4747 24.1171 72.856C24.4478 72.2267 24.9065 71.7413 25.4931 71.4C26.0905 71.048 26.7785 70.872 27.5571 70.872C28.3251 70.872 28.9865 71.048 29.5411 71.4C30.1065 71.7413 30.5385 72.1947 30.8371 72.76C31.1358 73.3253 31.2851 73.9333 31.2851 74.584C31.2851 74.7013 31.2798 74.8187 31.2691 74.936C31.2691 75.0533 31.2691 75.1867 31.2691 75.336H24.9491C24.9811 75.944 25.1198 76.4507 25.3651 76.856C25.6211 77.2507 25.9358 77.5493 26.3091 77.752C26.6931 77.9547 27.0985 78.056 27.5251 78.056C28.0798 78.056 28.5438 77.928 28.9171 77.672C29.2905 77.416 29.5625 77.0693 29.7331 76.632H31.0611C30.8478 77.368 30.4371 77.9813 29.8291 78.472C29.2318 78.952 28.4638 79.192 27.5251 79.192ZM27.5251 72.008C26.8851 72.008 26.3145 72.2053 25.8131 72.6C25.3225 72.984 25.0398 73.5493 24.9651 74.296H29.9571C29.9251 73.5813 29.6798 73.0213 29.2211 72.616C28.7625 72.2107 28.1971 72.008 27.5251 72.008ZM36.3465 79.192C35.5572 79.192 34.8638 79.0107 34.2665 78.648C33.6798 78.2853 33.2212 77.7893 32.8905 77.16C32.5705 76.5307 32.4105 75.816 32.4105 75.016C32.4105 74.216 32.5758 73.5067 32.9065 72.888C33.2372 72.2587 33.6958 71.768 34.2825 71.416C34.8692 71.0533 35.5625 70.872 36.3625 70.872C37.0132 70.872 37.5892 71.0053 38.0905 71.272C38.5918 71.5387 38.9812 71.912 39.2585 72.392V67.48H40.6025V79H39.3865L39.2585 77.688C39.0025 78.072 38.6345 78.4187 38.1545 78.728C37.6745 79.0373 37.0718 79.192 36.3465 79.192ZM36.4905 78.024C37.0238 78.024 37.4932 77.9013 37.8985 77.656C38.3145 77.4 38.6345 77.048 38.8585 76.6C39.0932 76.152 39.2105 75.6293 39.2105 75.032C39.2105 74.4347 39.0932 73.912 38.8585 73.464C38.6345 73.016 38.3145 72.6693 37.8985 72.424C37.4932 72.168 37.0238 72.04 36.4905 72.04C35.9678 72.04 35.4985 72.168 35.0825 72.424C34.6772 72.6693 34.3572 73.016 34.1225 73.464C33.8985 73.912 33.7865 74.4347 33.7865 75.032C33.7865 75.6293 33.8985 76.152 34.1225 76.6C34.3572 77.048 34.6772 77.4 35.0825 77.656C35.4985 77.9013 35.9678 78.024 36.4905 78.024ZM49.5237 79C48.7984 79 48.2277 78.824 47.8117 78.472C47.3957 78.12 47.1877 77.4853 47.1877 76.568V72.2H45.8117V71.064H47.1877L47.3637 69.16H48.5317V71.064H50.8677V72.2H48.5317V76.568C48.5317 77.0693 48.6331 77.4107 48.8357 77.592C49.0384 77.7627 49.3957 77.848 49.9077 77.848H50.7397V79H49.5237ZM55.6525 79.192C54.9058 79.192 54.2338 79.0213 53.6365 78.68C53.0392 78.3387 52.5645 77.8587 52.2125 77.24C51.8712 76.6107 51.7005 75.8747 51.7005 75.032C51.7005 74.1893 51.8765 73.4587 52.2285 72.84C52.5805 72.2107 53.0552 71.7253 53.6525 71.384C54.2605 71.0427 54.9378 70.872 55.6845 70.872C56.4312 70.872 57.1032 71.0427 57.7005 71.384C58.2978 71.7253 58.7672 72.2107 59.1085 72.84C59.4605 73.4587 59.6365 74.1893 59.6365 75.032C59.6365 75.8747 59.4605 76.6107 59.1085 77.24C58.7565 77.8587 58.2765 78.3387 57.6685 78.68C57.0712 79.0213 56.3992 79.192 55.6525 79.192ZM55.6525 78.04C56.1112 78.04 56.5378 77.928 56.9325 77.704C57.3272 77.48 57.6472 77.144 57.8925 76.696C58.1378 76.248 58.2605 75.6933 58.2605 75.032C58.2605 74.3707 58.1378 73.816 57.8925 73.368C57.6578 72.92 57.3432 72.584 56.9485 72.36C56.5538 72.136 56.1325 72.024 55.6845 72.024C55.2258 72.024 54.7992 72.136 54.4045 72.36C54.0098 72.584 53.6898 72.92 53.4445 73.368C53.1992 73.816 53.0765 74.3707 53.0765 75.032C53.0765 75.6933 53.1992 76.248 53.4445 76.696C53.6898 77.144 54.0045 77.48 54.3885 77.704C54.7832 77.928 55.2045 78.04 55.6525 78.04ZM65.0996 79V67.48H66.4436V79H65.0996ZM71.9425 79.192C71.1958 79.192 70.5238 79.0213 69.9265 78.68C69.3292 78.3387 68.8545 77.8587 68.5025 77.24C68.1612 76.6107 67.9905 75.8747 67.9905 75.032C67.9905 74.1893 68.1665 73.4587 68.5185 72.84C68.8705 72.2107 69.3452 71.7253 69.9425 71.384C70.5505 71.0427 71.2278 70.872 71.9745 70.872C72.7212 70.872 73.3932 71.0427 73.9905 71.384C74.5878 71.7253 75.0572 72.2107 75.3985 72.84C75.7505 73.4587 75.9265 74.1893 75.9265 75.032C75.9265 75.8747 75.7505 76.6107 75.3985 77.24C75.0465 77.8587 74.5665 78.3387 73.9585 78.68C73.3612 79.0213 72.6892 79.192 71.9425 79.192ZM71.9425 78.04C72.4012 78.04 72.8278 77.928 73.2225 77.704C73.6172 77.48 73.9372 77.144 74.1825 76.696C74.4278 76.248 74.5505 75.6933 74.5505 75.032C74.5505 74.3707 74.4278 73.816 74.1825 73.368C73.9478 72.92 73.6332 72.584 73.2385 72.36C72.8438 72.136 72.4225 72.024 71.9745 72.024C71.5158 72.024 71.0892 72.136 70.6945 72.36C70.2998 72.584 69.9798 72.92 69.7345 73.368C69.4892 73.816 69.3665 74.3707 69.3665 75.032C69.3665 75.6933 69.4892 76.248 69.7345 76.696C69.9798 77.144 70.2945 77.48 70.6785 77.704C71.0732 77.928 71.4945 78.04 71.9425 78.04ZM80.1153 79.192C79.4539 79.192 78.9046 79.08 78.4673 78.856C78.0299 78.632 77.7046 78.3333 77.4913 77.96C77.2779 77.5867 77.1713 77.1813 77.1713 76.744C77.1713 75.9333 77.4806 75.3093 78.0993 74.872C78.7179 74.4347 79.5606 74.216 80.6273 74.216H82.7713V74.12C82.7713 73.4267 82.5899 72.904 82.2273 72.552C81.8646 72.1893 81.3793 72.008 80.7713 72.008C80.2486 72.008 79.7953 72.1413 79.4113 72.408C79.0379 72.664 78.8033 73.0427 78.7073 73.544H77.3313C77.3846 72.968 77.5766 72.4827 77.9073 72.088C78.2486 71.6933 78.6699 71.3947 79.1713 71.192C79.6726 70.9787 80.2059 70.872 80.7713 70.872C81.8806 70.872 82.7126 71.1707 83.2673 71.768C83.8326 72.3547 84.1153 73.1387 84.1153 74.12V79H82.9153L82.8353 77.576C82.6113 78.024 82.2806 78.408 81.8433 78.728C81.4166 79.0373 80.8406 79.192 80.1153 79.192ZM80.3233 78.056C80.8353 78.056 81.2726 77.9227 81.6353 77.656C82.0086 77.3893 82.2913 77.0427 82.4833 76.616C82.6753 76.1893 82.7713 75.7413 82.7713 75.272V75.256H80.7393C79.9499 75.256 79.3899 75.3947 79.0593 75.672C78.7393 75.9387 78.5793 76.2747 78.5793 76.68C78.5793 77.096 78.7286 77.432 79.0273 77.688C79.3366 77.9333 79.7686 78.056 80.3233 78.056ZM89.4115 79.192C88.6222 79.192 87.9288 79.0107 87.3315 78.648C86.7448 78.2853 86.2862 77.7893 85.9555 77.16C85.6355 76.5307 85.4755 75.816 85.4755 75.016C85.4755 74.216 85.6408 73.5067 85.9715 72.888C86.3022 72.2587 86.7608 71.768 87.3475 71.416C87.9342 71.0533 88.6275 70.872 89.4275 70.872C90.0782 70.872 90.6542 71.0053 91.1555 71.272C91.6568 71.5387 92.0462 71.912 92.3235 72.392V67.48H93.6675V79H92.4515L92.3235 77.688C92.0675 78.072 91.6995 78.4187 91.2195 78.728C90.7395 79.0373 90.1368 79.192 89.4115 79.192ZM89.5555 78.024C90.0888 78.024 90.5582 77.9013 90.9635 77.656C91.3795 77.4 91.6995 77.048 91.9235 76.6C92.1582 76.152 92.2755 75.6293 92.2755 75.032C92.2755 74.4347 92.1582 73.912 91.9235 73.464C91.6995 73.016 91.3795 72.6693 90.9635 72.424C90.5582 72.168 90.0888 72.04 89.5555 72.04C89.0328 72.04 88.5635 72.168 88.1475 72.424C87.7422 72.6693 87.4222 73.016 87.1875 73.464C86.9635 73.912 86.8515 74.4347 86.8515 75.032C86.8515 75.6293 86.9635 76.152 87.1875 76.6C87.4222 77.048 87.7422 77.4 88.1475 77.656C88.5635 77.9013 89.0328 78.024 89.5555 78.024ZM102.589 79C101.863 79 101.293 78.824 100.877 78.472C100.461 78.12 100.253 77.4853 100.253 76.568V72.2H98.8767V71.064H100.253L100.429 69.16H101.597V71.064H103.933V72.2H101.597V76.568C101.597 77.0693 101.698 77.4107 101.901 77.592C102.103 77.7627 102.461 77.848 102.973 77.848H103.805V79H102.589ZM105.32 79V67.48H106.664V72.424C106.931 71.9333 107.31 71.5547 107.8 71.288C108.291 71.0107 108.824 70.872 109.4 70.872C110.318 70.872 111.054 71.16 111.608 71.736C112.163 72.3013 112.44 73.176 112.44 74.36V79H111.112V74.504C111.112 72.8507 110.446 72.024 109.112 72.024C108.419 72.024 107.838 72.2747 107.368 72.776C106.899 73.2667 106.664 73.9707 106.664 74.888V79H105.32ZM117.724 79.192C116.967 79.192 116.295 79.0213 115.708 78.68C115.122 78.328 114.658 77.8427 114.316 77.224C113.986 76.6053 113.82 75.8747 113.82 75.032C113.82 74.2 113.986 73.4747 114.316 72.856C114.647 72.2267 115.106 71.7413 115.692 71.4C116.29 71.048 116.978 70.872 117.756 70.872C118.524 70.872 119.186 71.048 119.74 71.4C120.306 71.7413 120.738 72.1947 121.036 72.76C121.335 73.3253 121.484 73.9333 121.484 74.584C121.484 74.7013 121.479 74.8187 121.468 74.936C121.468 75.0533 121.468 75.1867 121.468 75.336H115.148C115.18 75.944 115.319 76.4507 115.564 76.856C115.82 77.2507 116.135 77.5493 116.508 77.752C116.892 77.9547 117.298 78.056 117.724 78.056C118.279 78.056 118.743 77.928 119.116 77.672C119.49 77.416 119.762 77.0693 119.932 76.632H121.26C121.047 77.368 120.636 77.9813 120.028 78.472C119.431 78.952 118.663 79.192 117.724 79.192ZM117.724 72.008C117.084 72.008 116.514 72.2053 116.012 72.6C115.522 72.984 115.239 73.5493 115.164 74.296H120.156C120.124 73.5813 119.879 73.0213 119.42 72.616C118.962 72.2107 118.396 72.008 117.724 72.008ZM127.676 69.304C127.41 69.304 127.186 69.2187 127.004 69.048C126.834 68.8667 126.748 68.6427 126.748 68.376C126.748 68.12 126.834 67.9067 127.004 67.736C127.186 67.5653 127.41 67.48 127.676 67.48C127.932 67.48 128.151 67.5653 128.332 67.736C128.514 67.9067 128.604 68.12 128.604 68.376C128.604 68.6427 128.514 68.8667 128.332 69.048C128.151 69.2187 127.932 69.304 127.676 69.304ZM127.004 79V71.064H128.348V79H127.004ZM130.368 79V71.064H131.584L131.68 72.216C131.936 71.7893 132.278 71.4587 132.704 71.224C133.131 70.9893 133.611 70.872 134.144 70.872C134.774 70.872 135.312 71 135.76 71.256C136.219 71.512 136.571 71.9013 136.816 72.424C137.094 71.944 137.472 71.5653 137.952 71.288C138.443 71.0107 138.971 70.872 139.536 70.872C140.486 70.872 141.243 71.16 141.808 71.736C142.374 72.3013 142.656 73.176 142.656 74.36V79H141.328V74.504C141.328 73.6827 141.163 73.064 140.832 72.648C140.502 72.232 140.027 72.024 139.408 72.024C138.768 72.024 138.235 72.2747 137.808 72.776C137.392 73.2667 137.184 73.9707 137.184 74.888V79H135.84V74.504C135.84 73.6827 135.675 73.064 135.344 72.648C135.014 72.232 134.539 72.024 133.92 72.024C133.291 72.024 132.763 72.2747 132.336 72.776C131.92 73.2667 131.712 73.9707 131.712 74.888V79H130.368ZM147.001 79.192C146.34 79.192 145.79 79.08 145.353 78.856C144.916 78.632 144.59 78.3333 144.377 77.96C144.164 77.5867 144.057 77.1813 144.057 76.744C144.057 75.9333 144.366 75.3093 144.985 74.872C145.604 74.4347 146.446 74.216 147.513 74.216H149.657V74.12C149.657 73.4267 149.476 72.904 149.113 72.552C148.75 72.1893 148.265 72.008 147.657 72.008C147.134 72.008 146.681 72.1413 146.297 72.408C145.924 72.664 145.689 73.0427 145.593 73.544H144.217C144.27 72.968 144.462 72.4827 144.793 72.088C145.134 71.6933 145.556 71.3947 146.057 71.192C146.558 70.9787 147.092 70.872 147.657 70.872C148.766 70.872 149.598 71.1707 150.153 71.768C150.718 72.3547 151.001 73.1387 151.001 74.12V79H149.801L149.721 77.576C149.497 78.024 149.166 78.408 148.729 78.728C148.302 79.0373 147.726 79.192 147.001 79.192ZM147.209 78.056C147.721 78.056 148.158 77.9227 148.521 77.656C148.894 77.3893 149.177 77.0427 149.369 76.616C149.561 76.1893 149.657 75.7413 149.657 75.272V75.256H147.625C146.836 75.256 146.276 75.3947 145.945 75.672C145.625 75.9387 145.465 76.2747 145.465 76.68C145.465 77.096 145.614 77.432 145.913 77.688C146.222 77.9333 146.654 78.056 147.209 78.056ZM155.833 76.504C155.385 76.504 154.974 76.4453 154.601 76.328L153.801 77.08C153.918 77.1653 154.062 77.24 154.233 77.304C154.414 77.3573 154.67 77.4107 155.001 77.464C155.332 77.5067 155.796 77.5547 156.393 77.608C157.46 77.6827 158.222 77.928 158.681 78.344C159.14 78.76 159.369 79.304 159.369 79.976C159.369 80.4347 159.241 80.872 158.985 81.288C158.74 81.704 158.356 82.0453 157.833 82.312C157.321 82.5787 156.66 82.712 155.849 82.712C155.134 82.712 154.5 82.616 153.945 82.424C153.39 82.2427 152.958 81.96 152.649 81.576C152.34 81.2027 152.185 80.728 152.185 80.152C152.185 79.8533 152.265 79.528 152.425 79.176C152.585 78.8347 152.884 78.5093 153.321 78.2C153.086 78.104 152.884 78.0027 152.713 77.896C152.553 77.7787 152.404 77.6507 152.265 77.512V77.144L153.625 75.8C152.996 75.2667 152.681 74.5627 152.681 73.688C152.681 73.1653 152.804 72.6907 153.049 72.264C153.294 71.8373 153.652 71.5013 154.121 71.256C154.59 71 155.161 70.872 155.833 70.872C156.292 70.872 156.708 70.936 157.081 71.064H160.009V72.072L158.521 72.136C158.83 72.584 158.985 73.1013 158.985 73.688C158.985 74.2107 158.857 74.6853 158.601 75.112C158.356 75.5387 157.998 75.88 157.529 76.136C157.07 76.3813 156.505 76.504 155.833 76.504ZM155.833 75.4C156.398 75.4 156.846 75.256 157.177 74.968C157.518 74.6693 157.689 74.2427 157.689 73.688C157.689 73.144 157.518 72.728 157.177 72.44C156.846 72.1413 156.398 71.992 155.833 71.992C155.257 71.992 154.798 72.1413 154.457 72.44C154.126 72.728 153.961 73.144 153.961 73.688C153.961 74.2427 154.126 74.6693 154.457 74.968C154.798 75.256 155.257 75.4 155.833 75.4ZM153.497 80.024C153.497 80.5573 153.721 80.952 154.169 81.208C154.617 81.4747 155.177 81.608 155.849 81.608C156.51 81.608 157.038 81.464 157.433 81.176C157.838 80.888 158.041 80.504 158.041 80.024C158.041 79.6827 157.902 79.384 157.625 79.128C157.348 78.8827 156.836 78.7387 156.089 78.696C155.502 78.6533 154.996 78.6 154.569 78.536C154.132 78.7707 153.844 79.0213 153.705 79.288C153.566 79.5653 153.497 79.8107 153.497 80.024ZM164.461 79.192C163.703 79.192 163.031 79.0213 162.445 78.68C161.858 78.328 161.394 77.8427 161.053 77.224C160.722 76.6053 160.557 75.8747 160.557 75.032C160.557 74.2 160.722 73.4747 161.053 72.856C161.383 72.2267 161.842 71.7413 162.429 71.4C163.026 71.048 163.714 70.872 164.493 70.872C165.261 70.872 165.922 71.048 166.477 71.4C167.042 71.7413 167.474 72.1947 167.773 72.76C168.071 73.3253 168.221 73.9333 168.221 74.584C168.221 74.7013 168.215 74.8187 168.205 74.936C168.205 75.0533 168.205 75.1867 168.205 75.336H161.885C161.917 75.944 162.055 76.4507 162.301 76.856C162.557 77.2507 162.871 77.5493 163.245 77.752C163.629 77.9547 164.034 78.056 164.461 78.056C165.015 78.056 165.479 77.928 165.853 77.672C166.226 77.416 166.498 77.0693 166.669 76.632H167.997C167.783 77.368 167.373 77.9813 166.765 78.472C166.167 78.952 165.399 79.192 164.461 79.192ZM164.461 72.008C163.821 72.008 163.25 72.2053 162.749 72.6C162.258 72.984 161.975 73.5493 161.901 74.296H166.893C166.861 73.5813 166.615 73.0213 166.157 72.616C165.698 72.2107 165.133 72.008 164.461 72.008Z" fill="#73849D"/>
</svg>
