<svg width="24" height="24" viewBox="0 0 24 24" fill="none" xmlns="http://www.w3.org/2000/svg">
<path d="M11.9999 6.61072C11.1346 6.61072 10.4333 5.90947 10.4333 5.0442V1.56652C10.4333 0.701249 11.1346 0 11.9999 0C12.8653 0 13.5665 0.701249 13.5665 1.56652V5.0442C13.5665 5.90947 12.8653 6.61072 11.9999 6.61072V6.61072Z" fill="#7A75FF"/>
<path d="M16.9189 8.64746C16.518 8.64746 16.1172 8.49449 15.8112 8.18856C15.1993 7.57669 15.1993 6.58518 15.8112 5.97331L17.0405 4.74405C17.6524 4.13219 18.644 4.13219 19.2559 4.74405C19.8678 5.35592 19.8678 6.34744 19.2559 6.9593L18.0266 8.18856C17.7206 8.49449 17.3197 8.64746 16.9189 8.64746V8.64746Z" fill="#7A75FF"/>
<path d="M22.4343 13.5666H18.9565C18.0912 13.5666 17.3899 12.8654 17.3899 12.0001C17.3899 11.1348 18.0912 10.4336 18.9565 10.4336H22.4343C23.2996 10.4336 24.0009 11.1348 24.0009 12.0001C24.0009 12.8654 23.2996 13.5666 22.4343 13.5666Z" fill="#7A75FF"/>
<path d="M18.1482 19.7139C17.7473 19.7139 17.3465 19.5609 17.0405 19.255L15.8112 18.0257C15.1993 17.4138 15.1993 16.4223 15.8112 15.8105C16.4231 15.1986 17.4147 15.1986 18.0266 15.8105L19.2559 17.0397C19.8678 17.6516 19.8678 18.6431 19.2559 19.255C18.9499 19.5609 18.5491 19.7139 18.1482 19.7139V19.7139Z" fill="#7A75FF"/>
<path d="M11.9999 23.9994C11.1346 23.9994 10.4333 23.2981 10.4333 22.4329V18.9552C10.4333 18.0899 11.1346 17.3887 11.9999 17.3887C12.8653 17.3887 13.5665 18.0899 13.5665 18.9552V22.4329C13.5665 23.2981 12.8653 23.9994 11.9999 23.9994Z" fill="#7A75FF"/>
<path d="M5.85272 19.7139C5.45186 19.7139 5.051 19.5609 4.74505 19.255C4.13316 18.6431 4.13316 17.6516 4.74505 17.0397L5.97437 15.8105C6.58626 15.1986 7.57782 15.1986 8.18971 15.8105C8.8016 16.4223 8.8016 17.4138 8.18971 18.0257L6.9604 19.255C6.65445 19.5609 6.25359 19.7139 5.85272 19.7139V19.7139Z" fill="#7A75FF"/>
<path d="M5.04443 13.5666H1.56659C0.70128 13.5666 0 12.8654 0 12.0001C0 11.1348 0.70128 10.4336 1.56659 10.4336H5.04443C5.90974 10.4336 6.61102 11.1348 6.61102 12.0001C6.61102 12.8654 5.90974 13.5666 5.04443 13.5666V13.5666Z" fill="#7A75FF"/>
<path d="M7.08204 8.64746C6.68117 8.64746 6.28031 8.49449 5.97437 8.18856L4.74505 6.9593C4.13316 6.34744 4.13316 5.35592 4.74505 4.74405C5.35694 4.13219 6.3485 4.13219 6.9604 4.74405L8.18971 5.97331C8.8016 6.58518 8.8016 7.57669 8.18971 8.18856C7.88376 8.49449 7.4829 8.64746 7.08204 8.64746V8.64746Z" fill="#7A75FF"/>
<path d="M11.9998 13.57C12.8675 13.57 13.571 12.8666 13.571 11.9989C13.571 11.1312 12.8675 10.4277 11.9998 10.4277C11.132 10.4277 10.4286 11.1312 10.4286 11.9989C10.4286 12.8666 11.132 13.57 11.9998 13.57Z" fill="#7A75FF"/>
</svg>
