<svg width="28" height="28" viewBox="0 0 28 28" fill="none" xmlns="http://www.w3.org/2000/svg">
<path fill-rule="evenodd" clip-rule="evenodd" d="M10.3602 8.6237C10.0901 8.6237 9.83795 8.75561 9.6845 8.97725L8.7629 10.308C8.56817 10.5898 8.56817 10.9622 8.7629 11.244L12.1253 16.0987C12.2994 16.35 12.32 16.6775 12.1783 16.9476C12.0365 17.2186 11.7556 17.3882 11.4505 17.3882H7.5021C7.23289 17.3882 6.98073 17.2563 6.82728 17.0347L2.81607 11.244C2.62134 10.9622 2.62134 10.5898 2.81607 10.308L6.82728 4.51737C6.98073 4.29572 7.23289 4.1638 7.5021 4.1638H17.7823C18.0883 4.1638 18.3692 4.33341 18.511 4.60531C18.6528 4.87631 18.6312 5.20385 18.4562 5.45511L16.4946 8.27193C16.3411 8.49178 16.089 8.6237 15.8207 8.6237H10.3602ZM17.8317 23.6464C17.6782 23.8681 17.4261 24 17.1559 24H6.87574C6.56974 24 6.28976 23.8304 6.14798 23.5594C6.0062 23.2884 6.02683 22.9609 6.20182 22.7096L8.16436 19.8928C8.31781 19.672 8.56907 19.541 8.83828 19.541H14.2987C14.5679 19.541 14.8201 19.4082 14.9736 19.1865L15.8952 17.8558C16.0908 17.5749 16.0908 17.2016 15.8952 16.9207L12.5327 12.0651C12.3586 11.8138 12.3389 11.4872 12.4807 11.2162C12.6225 10.9452 12.9024 10.7756 13.2084 10.7756H17.1559C17.4261 10.7756 17.6782 10.9084 17.8317 11.13L21.842 16.9207C22.0367 17.2016 22.0367 17.5749 21.842 17.8558L17.8317 23.6464Z" fill="url(#paint0_linear_1782_51000)"/>
<path fill-rule="evenodd" clip-rule="evenodd" d="M18.7227 8.58453C18.5545 8.39785 18.5689 8.11942 18.7558 7.94838C18.8001 7.90458 18.8532 7.87017 18.9129 7.84514C20.3079 7.22879 21.4032 5.78648 21.5614 4.34938C21.5791 4.15123 21.7439 4 21.9552 4H21.9741C22.1754 4 22.3535 4.14287 22.3701 4.33267C22.5183 5.76456 23.6003 7.20479 24.9843 7.83261C25.0695 7.87016 25.1425 7.92439 25.2 7.98904C25.3693 8.17676 25.3549 8.45523 25.1679 8.62626C25.1237 8.66902 25.0706 8.70343 25.0098 8.7295C23.6158 9.34481 22.5195 10.7882 22.3624 12.2253C22.3436 12.4234 22.1854 12.5767 21.9741 12.5767H21.9552C21.7539 12.5767 21.5692 12.4317 21.5526 12.2419C21.4054 10.8101 20.3224 9.36982 18.9395 8.74096C18.8543 8.70446 18.7802 8.65023 18.7227 8.58453Z" fill="#00D5E9"/>
<defs>
<linearGradient id="paint0_linear_1782_51000" x1="23.5766" y1="4.1638" x2="12.3295" y2="18.4248" gradientUnits="userSpaceOnUse">
<stop stop-color="#00D5E9"/>
<stop offset="1" stop-color="#009CEE"/>
</linearGradient>
</defs>
</svg>
