<svg width="111" height="21" viewBox="0 0 111 21" fill="none" xmlns="http://www.w3.org/2000/svg">
<path fill-rule="evenodd" clip-rule="evenodd" d="M8.55015 4.6779C8.28004 4.6779 8.02789 4.80981 7.87444 5.03145L6.95284 6.36224C6.75812 6.64401 6.75812 7.01642 6.95284 7.29819L10.3153 12.1529C10.4894 12.4042 10.51 12.7317 10.3682 13.0018C10.2264 13.2728 9.94555 13.4424 9.64045 13.4424H5.69204C5.42283 13.4424 5.17067 13.3105 5.01722 13.0889L1.00601 7.29819C0.811279 7.01642 0.811279 6.64401 1.00601 6.36224L5.01722 0.571567C5.17067 0.349919 5.42283 0.218001 5.69204 0.218001H15.9723C16.2783 0.218001 16.5591 0.387606 16.7009 0.659507C16.8427 0.930511 16.8212 1.25805 16.6462 1.50931L14.6845 4.32613C14.5311 4.54598 14.2789 4.6779 14.0106 4.6779H8.55015ZM16.0216 19.7006C15.8682 19.9223 15.616 20.0542 15.3459 20.0542H5.06568C4.75968 20.0542 4.47971 19.8846 4.33792 19.6136C4.19614 19.3426 4.21678 19.0151 4.39176 18.7638L6.3543 15.947C6.50775 15.7262 6.75901 15.5952 7.02822 15.5952H12.4887C12.7579 15.5952 13.0101 15.4624 13.1635 15.2407L14.0851 13.91C14.2807 13.6291 14.2807 13.2558 14.0851 12.9749L10.7227 8.11928C10.5486 7.86802 10.5288 7.54138 10.6706 7.27038C10.8124 6.99938 11.0924 6.82977 11.3984 6.82977H15.3459C15.616 6.82977 15.8682 6.96258 16.0216 7.18423L20.0319 12.9749C20.2267 13.2558 20.2267 13.6291 20.0319 13.91L16.0216 19.7006Z" fill="url(#paint0_linear_1782_42842)"/>
<path d="M34.1613 16.201C33.0258 16.201 32.0465 15.899 31.2231 15.2915C30.4002 14.6839 29.8181 13.8108 29.4775 12.6757L31.9813 11.6897C32.1287 12.2682 32.3728 12.7448 32.7137 13.1195C33.0542 13.4942 33.537 13.6798 34.1613 13.6798C34.3658 13.6798 34.5615 13.6579 34.7489 13.6143C34.9362 13.567 35.1011 13.4979 35.2429 13.3997C35.3848 13.3051 35.5012 13.1814 35.5922 13.0322C35.6828 12.8867 35.7283 12.7156 35.7283 12.5228C35.7283 12.33 35.6915 12.1517 35.6177 11.988C35.5438 11.8207 35.4219 11.6678 35.2513 11.526C35.081 11.3841 34.854 11.2422 34.5702 11.1003C34.2865 10.9584 33.9285 10.8093 33.497 10.6492L32.7475 10.3763C32.4299 10.2635 32.1032 10.1071 31.7685 9.907C31.4334 9.71054 31.1296 9.47042 30.8571 9.18301C30.5846 8.89923 30.3631 8.57546 30.1928 8.20437C30.0225 7.83691 29.9374 7.42584 29.9374 6.97107C29.9374 6.48356 30.0338 6.0215 30.227 5.5922C30.4198 5.15926 30.6923 4.78814 31.0445 4.47526C31.3963 4.16238 31.8223 3.91497 32.3218 3.73307C32.8214 3.55116 33.3722 3.46021 33.9739 3.46021C34.6099 3.46021 35.1549 3.54386 35.6093 3.70757C36.0633 3.87493 36.4494 4.0823 36.7673 4.34061C37.0853 4.59528 37.3378 4.87909 37.5251 5.19925C37.7125 5.51577 37.8573 5.82502 37.9595 6.11971L35.6602 7.09107C35.5354 6.72726 35.3368 6.4326 35.0639 6.21067C34.7914 5.99238 34.4396 5.87963 34.0081 5.87963C33.5537 5.87963 33.1932 5.97414 32.9265 6.15968C32.6598 6.34887 32.5263 6.58898 32.5263 6.88367C32.5263 7.19292 32.6624 7.46578 32.9349 7.70226C33.2074 7.94237 33.6902 8.17893 34.3829 8.41905L35.1323 8.6737C36.1656 9.0266 36.966 9.49589 37.5339 10.0889C38.1014 10.6783 38.3856 11.4714 38.3856 12.4719C38.3856 13.1086 38.2575 13.658 38.0021 14.1236C37.7467 14.5893 37.4174 14.975 37.0143 15.2842C36.6112 15.5898 36.1568 15.8191 35.6519 15.9719C35.1465 16.1247 34.6495 16.201 34.1613 16.201Z" fill="#194453"/>
<path d="M45.5389 14.8731H45.3686C44.8011 15.7609 43.9494 16.201 42.8139 16.201C41.7691 16.201 40.9912 15.8663 40.4804 15.1969C39.9696 14.5275 39.7139 13.647 39.7139 12.5556V7.58228H42.2689V12.2682C42.2689 12.7229 42.3766 13.0941 42.5924 13.3815C42.8081 13.6725 43.1432 13.818 43.5972 13.818C44.1764 13.818 44.6166 13.5962 44.9175 13.1523C45.2184 12.7085 45.3686 12.13 45.3686 11.4169V7.58228H47.9237V15.9282H45.5389V14.8731Z" fill="#194453"/>
<path d="M52.1819 8.50267H52.3522C52.545 8.17524 52.8434 7.89144 53.2465 7.65859C53.6496 7.42575 54.1575 7.31299 54.7708 7.31299C55.3046 7.31299 55.8154 7.41845 56.3036 7.6331C56.7918 7.85139 57.2208 8.15336 57.5897 8.54628C57.9586 8.9392 58.2511 9.40492 58.4668 9.95065C58.6826 10.4964 58.7903 11.0967 58.7903 11.7552C58.7903 12.4137 58.6826 13.0176 58.4668 13.5633C58.2511 14.1054 57.9586 14.5748 57.5897 14.9677C57.2208 15.3606 56.7918 15.6626 56.3036 15.8772C55.8154 16.0955 55.3046 16.201 54.7708 16.201C54.1575 16.201 53.6496 16.0846 53.2465 15.8517C52.8434 15.6189 52.545 15.3387 52.3522 15.0113H52.1819L52.3522 16.201V19.61H49.7971V7.58221H52.1819V8.50267ZM54.2088 9.69599C53.9363 9.69599 53.678 9.74325 53.4338 9.84148C53.1897 9.93608 52.9739 10.0743 52.7866 10.2562C52.5992 10.4381 52.4515 10.6564 52.3435 10.9038C52.2358 11.1548 52.1819 11.4386 52.1819 11.7552C52.1819 12.0753 52.2358 12.3627 52.3435 12.6174C52.4515 12.872 52.5992 13.0867 52.7866 13.265C52.9739 13.4396 53.1897 13.5779 53.4338 13.6725C53.678 13.7707 53.9363 13.818 54.2088 13.818C54.4813 13.818 54.7395 13.7707 54.9837 13.6725C55.2278 13.5779 55.4435 13.4396 55.6309 13.265C55.8183 13.0867 55.966 12.872 56.0737 12.6174C56.1817 12.3627 56.2356 12.0753 56.2356 11.7552C56.2356 11.4386 56.1817 11.1548 56.0737 10.9038C55.966 10.6564 55.8183 10.4381 55.6309 10.2562C55.4435 10.0743 55.2278 9.93608 54.9837 9.84148C54.7395 9.74325 54.4813 9.69599 54.2088 9.69599Z" fill="#194453"/>
<path d="M68.3287 13.9016C67.9198 14.6183 67.3832 15.1787 66.7188 15.5898C66.0549 15.9973 65.2512 16.201 64.3089 16.201C63.6617 16.201 63.0625 16.0919 62.512 15.8699C61.9612 15.648 61.4813 15.3387 61.0728 14.9422C60.6638 14.5456 60.3459 14.0763 60.1189 13.5378C59.8918 12.9957 59.7783 12.4027 59.7783 11.7552C59.7783 11.1549 59.8918 10.5837 60.1189 10.0452C60.3459 9.5068 60.6609 9.03379 61.064 8.62995C61.4672 8.22976 61.9387 7.906 62.4778 7.66952C63.0174 7.4294 63.6049 7.31299 64.2409 7.31299C64.9332 7.31299 65.5437 7.42575 66.0716 7.65131C66.5999 7.88051 67.0397 8.18978 67.3919 8.57906C67.7437 8.97198 68.0107 9.4304 68.1923 9.96157C68.3738 10.4891 68.4648 11.053 68.4648 11.6533C68.4648 11.7442 68.4619 11.8352 68.4564 11.9261C68.4506 12.0171 68.4422 12.0971 68.4306 12.1662C68.4193 12.2463 68.4139 12.3191 68.4139 12.3882H62.265C62.3898 12.9303 62.6452 13.3305 63.0316 13.5779C63.4176 13.8289 63.8491 13.9526 64.326 13.9526C64.803 13.9526 65.1973 13.8507 65.5095 13.647C65.822 13.4432 66.0691 13.1813 66.2506 12.8648L68.3287 13.9016ZM66.0632 10.6491C66.0407 10.5145 65.9865 10.3654 65.9013 10.2053C65.8162 10.0489 65.6969 9.90335 65.5437 9.77238C65.3905 9.64141 65.2032 9.53221 64.9816 9.44854C64.7604 9.36486 64.5134 9.32125 64.2409 9.32125C63.8432 9.32125 63.4743 9.43401 63.1338 9.65958C62.7929 9.88878 62.5433 10.2198 62.3843 10.6491H66.0632Z" fill="#194453"/>
<path d="M69.9294 7.58224H72.3143V8.64091H72.4845C72.7115 8.27709 73.035 7.97148 73.4552 7.72044C73.8754 7.46941 74.3411 7.3457 74.8519 7.3457C75.1586 7.3457 75.4252 7.3821 75.6523 7.45487C75.8796 7.53127 76.067 7.61128 76.2143 7.70223L75.5504 9.95068C75.4027 9.87064 75.2466 9.80878 75.0818 9.76513C74.9173 9.71783 74.7042 9.69602 74.4433 9.69602C73.8073 9.69602 73.3217 9.91789 72.9869 10.3581C72.6519 10.802 72.4845 11.3804 72.4845 12.0971V15.9281H69.9294V7.58224Z" fill="#194453"/>
<path d="M79.5871 8.50267H79.7574C79.9505 8.17524 80.2485 7.89144 80.6516 7.65859C81.0547 7.42575 81.563 7.31299 82.176 7.31299C82.7097 7.31299 83.2205 7.41845 83.7091 7.6331C84.1974 7.85139 84.6259 8.15336 84.9948 8.54628C85.3641 8.9392 85.6562 9.40492 85.872 9.95065C86.0877 10.4964 86.1958 11.0967 86.1958 11.7552C86.1958 12.4137 86.0877 13.0176 85.872 13.5633C85.6562 14.1054 85.3641 14.5748 84.9948 14.9677C84.6259 15.3606 84.1974 15.6626 83.7091 15.8772C83.2205 16.0955 82.7097 16.201 82.176 16.201C81.563 16.201 81.0547 16.0846 80.6516 15.8517C80.2485 15.6189 79.9505 15.3387 79.7574 15.0113H79.5871L79.7574 16.201V19.61H77.2026V7.58221H79.5871V8.50267ZM81.6139 9.69599C81.3414 9.69599 81.0831 9.74325 80.839 9.84148C80.5949 9.93608 80.3791 10.0743 80.1917 10.2562C80.0044 10.4381 79.8567 10.6564 79.749 10.9038C79.6409 11.1548 79.5871 11.4386 79.5871 11.7552C79.5871 12.0753 79.6409 12.3627 79.749 12.6174C79.8567 12.872 80.0044 13.0867 80.1917 13.265C80.3791 13.4396 80.5949 13.5779 80.839 13.6725C81.0831 13.7707 81.3414 13.818 81.6139 13.818C81.8864 13.818 82.1447 13.7707 82.3888 13.6725C82.6329 13.5779 82.8487 13.4396 83.0361 13.265C83.2234 13.0867 83.3711 12.872 83.4792 12.6174C83.5869 12.3627 83.6407 12.0753 83.6407 11.7552C83.6407 11.4386 83.5869 11.1548 83.4792 10.9038C83.3711 10.6564 83.2234 10.4381 83.0361 10.2562C82.8487 10.0743 82.6329 9.93608 82.3888 9.84148C82.1447 9.74325 81.8864 9.69599 81.6139 9.69599Z" fill="#194453"/>
<path d="M88.9891 6.66544C88.7617 6.66544 88.5518 6.62174 88.3586 6.53442C88.1658 6.45075 87.9981 6.33799 87.8562 6.1961C87.7143 6.05421 87.6008 5.8869 87.5156 5.69408C87.4305 5.50126 87.3879 5.29025 87.3879 5.06104C87.3879 4.84639 87.4305 4.63895 87.5156 4.44249C87.6008 4.24239 87.7143 4.07143 87.8562 3.92954C87.9981 3.78765 88.1658 3.6749 88.3586 3.59122C88.5518 3.5039 88.7617 3.46021 88.9891 3.46021C89.2048 3.46021 89.4118 3.5039 89.6105 3.59122C89.8095 3.6749 89.9798 3.78765 90.1216 3.92954C90.2635 4.07143 90.3763 4.24239 90.4636 4.44249C90.5473 4.63895 90.591 4.84639 90.591 5.06104C90.591 5.29025 90.5473 5.50126 90.4636 5.69408C90.3763 5.8869 90.2635 6.05421 90.1216 6.1961C89.9798 6.33799 89.8095 6.45075 89.6105 6.53442C89.4118 6.62174 89.2048 6.66544 88.9891 6.66544ZM87.7114 15.9282V7.58226H90.2672V15.9282H87.7114Z" fill="#194453"/>
<path d="M94.662 8.50267H94.833C95.0258 8.17524 95.3205 7.89144 95.7244 7.65859C96.1282 7.42575 96.6375 7.31299 97.2487 7.31299C97.7836 7.31299 98.2929 7.41845 98.7841 7.6331C99.2716 7.85139 99.7009 8.15336 100.068 8.54628C100.439 8.9392 100.73 9.40492 100.945 9.95065C101.16 10.4964 101.269 11.0967 101.269 11.7552C101.269 12.4137 101.16 13.0176 100.945 13.5633C100.73 14.1054 100.439 14.5748 100.068 14.9677C99.7009 15.3606 99.2716 15.6626 98.7841 15.8772C98.2929 16.0955 97.7836 16.201 97.2487 16.201C96.6375 16.201 96.1282 16.0846 95.7244 15.8517C95.3205 15.6189 95.0258 15.3387 94.833 15.0113H94.662L94.833 16.201V19.61H92.2754V7.58221H94.662V8.50267ZM96.6885 9.69599C96.4156 9.69599 96.1573 9.74325 95.9135 9.84148C95.6698 9.93608 95.4515 10.0743 95.266 10.2562C95.0768 10.4381 94.9312 10.6564 94.8221 10.9038C94.713 11.1548 94.662 11.4386 94.662 11.7552C94.662 12.0753 94.713 12.3627 94.8221 12.6174C94.9312 12.872 95.0768 13.0867 95.266 13.265C95.4515 13.4396 95.6698 13.5779 95.9135 13.6725C96.1573 13.7707 96.4156 13.818 96.6885 13.818C96.9613 13.818 97.2196 13.7707 97.4634 13.6725C97.7072 13.5779 97.9218 13.4396 98.111 13.265C98.2966 13.0867 98.4457 12.872 98.5512 12.6174C98.6604 12.3627 98.7149 12.0753 98.7149 11.7552C98.7149 11.4386 98.6604 11.1548 98.5512 10.9038C98.4457 10.6564 98.2966 10.4381 98.111 10.2562C97.9218 10.0743 97.7072 9.93608 97.4634 9.84148C97.2196 9.74325 96.9613 9.69599 96.6885 9.69599Z" fill="#194453"/>
<path d="M110.808 13.9016C110.401 14.6183 109.862 15.1787 109.197 15.5898C108.534 15.9973 107.73 16.201 106.788 16.201C106.14 16.201 105.54 16.0919 104.991 15.8699C104.441 15.648 103.961 15.3387 103.55 14.9422C103.143 14.5456 102.826 14.0763 102.597 13.5378C102.371 12.9957 102.259 12.4027 102.259 11.7552C102.259 11.1549 102.371 10.5837 102.597 10.0452C102.826 9.5068 103.139 9.03379 103.543 8.62995C103.947 8.22976 104.416 7.906 104.958 7.66952C105.497 7.4294 106.082 7.31299 106.719 7.31299C107.414 7.31299 108.021 7.42575 108.553 7.65131C109.08 7.88051 109.52 8.18978 109.87 8.57906C110.222 8.97198 110.488 9.4304 110.67 9.96157C110.852 10.4891 110.943 11.053 110.943 11.6533C110.943 11.7442 110.943 11.8352 110.936 11.9261C110.928 12.0171 110.921 12.0971 110.91 12.1662C110.899 12.2463 110.892 12.3191 110.892 12.3882H104.743C104.867 12.9303 105.125 13.3305 105.511 13.5779C105.897 13.8289 106.326 13.9526 106.806 13.9526C107.283 13.9526 107.676 13.8507 107.989 13.647C108.302 13.4432 108.549 13.1813 108.731 12.8648L110.808 13.9016ZM108.542 10.6491C108.52 10.5145 108.465 10.3654 108.382 10.2053C108.294 10.0489 108.178 9.90335 108.021 9.77238C107.869 9.64141 107.683 9.53221 107.461 9.44854C107.239 9.36486 106.992 9.32125 106.719 9.32125C106.322 9.32125 105.955 9.43401 105.613 9.65958C105.271 9.88878 105.024 10.2198 104.863 10.6491H108.542Z" fill="#194453"/>
<path fill-rule="evenodd" clip-rule="evenodd" d="M16.9126 4.63873C16.7444 4.45205 16.7588 4.17362 16.9458 4.00258C16.99 3.95878 17.0431 3.92437 17.1028 3.89934C18.4979 3.28299 19.5931 1.84068 19.7513 0.403577C19.769 0.205428 19.9339 0.0541992 20.1452 0.0541992H20.164C20.3654 0.0541992 20.5434 0.197069 20.56 0.386874C20.7083 1.81876 21.7903 3.25899 23.1743 3.88681C23.2594 3.92435 23.3324 3.97858 23.3899 4.04324C23.5592 4.23096 23.5448 4.50943 23.3579 4.68046C23.3136 4.72322 23.2605 4.75763 23.1997 4.7837C21.8058 5.39901 20.7094 6.84237 20.5523 8.27947C20.5335 8.47761 20.3753 8.6309 20.164 8.6309H20.1452C19.9438 8.6309 19.7591 8.48595 19.7425 8.29614C19.5954 6.86426 18.5123 5.42402 17.1294 4.79516C17.0442 4.75866 16.9701 4.70443 16.9126 4.63873Z" fill="#00D5E9"/>
<defs>
<linearGradient id="paint0_linear_1782_42842" x1="21.7665" y1="0.218001" x2="10.5195" y2="14.479" gradientUnits="userSpaceOnUse">
<stop stop-color="#00D5E9"/>
<stop offset="1" stop-color="#009CEE"/>
</linearGradient>
</defs>
</svg>
