<svg width="28" height="28" viewBox="0 0 28 28" fill="none" xmlns="http://www.w3.org/2000/svg">
<path fill-rule="evenodd" clip-rule="evenodd" d="M24.6891 8.20742C24.7475 8.25136 24.7826 8.31978 24.7831 8.39264C24.7837 8.46662 24.7503 8.53559 24.6919 8.58064C23.3008 9.66247 22.3764 10.9974 21.7662 12.5041C21.729 12.5993 21.6361 12.661 21.5338 12.6599C21.4314 12.6588 21.3407 12.5937 21.3063 12.498C20.8424 11.271 20.1176 10.0034 18.3467 8.57397C18.2921 8.52947 18.2604 8.46216 18.261 8.39152C18.2616 8.32088 18.2938 8.25414 18.3489 8.2102C19.651 7.1573 20.6132 5.82461 21.2868 4.25332C21.3257 4.15988 21.418 4.09981 21.5193 4.10203C21.6205 4.10426 21.7101 4.16822 21.7446 4.26278C22.3364 5.81349 23.283 7.14951 24.6891 8.20742Z" fill="#1A7AE6"/>
<path d="M17.7902 5.20659C17.7808 5.35248 17.7321 5.49593 17.6454 5.62047C17.2992 6.11798 16.8991 6.69231 16.5365 7.21276L16.5318 7.21944L16.5317 7.21971L16.5283 7.22456C16.1974 7.69957 15.8984 8.12872 15.7012 8.41217C15.5492 8.63006 15.2993 8.7608 15.0333 8.7608H9.62158C9.35388 8.7608 9.10398 8.89153 8.9519 9.1112C8.74155 9.41545 8.43094 9.86375 8.17391 10.2347L8.03853 10.4301C7.94204 10.5697 7.89379 10.7318 7.89378 10.8939C7.89379 11.0559 7.94204 11.218 8.03853 11.3576C8.42365 11.9131 9.10533 12.8975 9.80985 13.9149L9.81253 13.9188C10.3615 14.7116 10.9241 15.5241 11.371 16.1691C11.4581 16.2949 11.5065 16.4401 11.5149 16.5874C11.5158 16.6041 11.5162 16.6208 11.5162 16.6374C11.5156 16.7653 11.4849 16.8933 11.4234 17.0105C11.2829 17.2791 11.0045 17.4472 10.7022 17.4472H6.78897C6.52217 17.4472 6.27225 17.3164 6.12017 17.0968C5.66583 16.4407 4.6487 14.9724 3.71812 13.629L3.71762 13.6283C3.08547 12.7158 2.49332 11.861 2.14474 11.3577C2.04824 11.2181 1.99999 11.056 2 10.8939C1.99999 10.7318 2.04824 10.5697 2.14474 10.43C2.4881 9.93429 3.06778 9.09749 3.68924 8.20039L3.72262 8.15221C4.65197 6.81064 5.66656 5.34603 6.12017 4.69099C6.27225 4.47132 6.52217 4.34058 6.78897 4.34058H16.9775C17.2807 4.34058 17.5591 4.50867 17.6996 4.77814C17.7459 4.86652 17.7746 4.96097 17.7861 5.05679C17.7921 5.10657 17.7935 5.15673 17.7902 5.20659Z" fill="#3F8FEC"/>
<path d="M21.1464 17.4469C21.1464 17.609 21.0982 17.7711 21.0017 17.9108C20.6581 18.4068 20.078 19.2441 19.4562 20.1418L19.3998 20.2232C18.477 21.5553 17.4759 23.0004 17.0262 23.6498C16.8741 23.8695 16.6242 24.0002 16.3574 24.0002H6.16892C5.86565 24.0002 5.58728 23.8321 5.44676 23.5627C5.40015 23.4736 5.37136 23.3783 5.36001 23.2816C5.35425 23.2326 5.35298 23.1832 5.35616 23.1341C5.36561 22.9883 5.4143 22.8448 5.50101 22.7203C5.84754 22.2223 6.24813 21.6473 6.61101 21.1264L6.61631 21.1188C6.94795 20.6428 7.24766 20.2126 7.44516 19.9286C7.59724 19.7107 7.84714 19.58 8.11306 19.58H13.5248C13.7925 19.58 14.0424 19.4493 14.1945 19.2296C14.4054 18.9246 14.717 18.4748 14.9744 18.1033L15.1079 17.9107C15.2013 17.7754 15.2496 17.6191 15.2525 17.4621C15.2527 17.4523 15.2527 17.4424 15.2525 17.4326C15.2497 17.2753 15.2015 17.1187 15.1079 16.9832C14.7231 16.4283 14.0424 15.4453 13.3387 14.4289L13.3271 14.4123C12.7803 13.6225 12.2204 12.814 11.7754 12.1718C11.6792 12.0329 11.6303 11.8705 11.6302 11.7076C11.6301 11.5783 11.6608 11.4487 11.723 11.3303C11.8635 11.0617 12.1419 10.8936 12.4442 10.8936H16.3574C16.6242 10.8936 16.8741 11.0244 17.0262 11.244C17.481 11.9007 18.4995 13.371 19.4307 14.7153C20.0621 15.6268 20.6534 16.4803 21.0017 16.9831C21.0789 17.0949 21.1252 17.2211 21.1406 17.3501C21.1445 17.3823 21.1464 17.4146 21.1464 17.4469Z" fill="#3F8FEC"/>
</svg>
