<svg width="28" height="28" viewBox="0 0 28 28" fill="none" xmlns="http://www.w3.org/2000/svg">
<path d="M21.0539 15.3561C21.5602 14.6421 21.5602 13.6861 21.0539 12.9721L16.82 7.00088C16.5223 6.58096 16.8225 6 17.3373 6H21.8833C22.0889 6 22.2817 6.09965 22.4006 6.26733L26.8946 12.6053C27.5566 13.5391 27.5566 14.7891 26.8946 15.7229L22.4006 22.0609C22.2817 22.2286 22.0889 22.3282 21.8833 22.3282H17.3373C16.8225 22.3282 16.5223 21.7472 16.82 21.3273L21.0539 15.3561Z" fill="#2282F1"/>
<path d="M11.2142 6.1582C11.98 6.1582 12.7047 6.50418 13.1863 7.09959L17.6738 12.648C18.4262 13.5783 18.4262 14.9078 17.6738 15.8381L13.1863 21.3865C12.7047 21.9819 11.98 22.3279 11.2142 22.3279L2.53629 22.3279C1.13546 22.3279 -0.000136079 21.1923 -0.000136018 19.7915L-0.000135533 8.69462C-0.000135471 7.2938 1.13546 6.1582 2.53629 6.1582L11.2142 6.1582Z" fill="#069DDD"/>
<path d="M15.0345 13.8913C15.1348 13.9258 15.2216 13.9912 15.2824 14.0781C15.3428 14.1631 15.376 14.2644 15.3775 14.3687L15.3775 14.3755C15.3776 14.4818 15.3446 14.5855 15.2831 14.6722C15.2216 14.759 15.1348 14.8245 15.0345 14.8597L13.737 15.2827C13.3406 15.4132 12.9803 15.6347 12.6849 15.9294C12.3894 16.2241 12.1669 16.5839 12.0352 16.98L11.6124 18.2797C11.5772 18.38 11.5117 18.467 11.425 18.5285C11.3383 18.59 11.2346 18.623 11.1283 18.623C11.022 18.623 10.9184 18.59 10.8316 18.5285C10.7449 18.467 10.6795 18.38 10.6443 18.2797L10.2231 16.98C10.0884 16.5893 9.86511 16.2351 9.57078 15.9451C9.27644 15.655 8.91904 15.4371 8.5265 15.3082L7.22898 14.8851C7.12867 14.85 7.04175 14.7845 6.98026 14.6977C6.91877 14.611 6.88574 14.5073 6.88574 14.4009C6.88574 14.2946 6.91877 14.1909 6.98026 14.1041C7.04175 14.0174 7.12867 13.9519 7.22898 13.9167L8.5265 13.4937C8.9217 13.3627 9.28087 13.1411 9.57541 12.8468C9.86995 12.5524 10.0917 12.1933 10.2231 11.7981L10.6443 10.4967L10.6511 10.4712C10.687 10.3717 10.7528 10.2856 10.8394 10.2247C10.926 10.1639 11.0293 10.1312 11.1351 10.1312C11.241 10.1312 11.3442 10.1639 11.4308 10.2247C11.5175 10.2856 11.5832 10.3717 11.6192 10.4712L12.0403 11.7709C12.1713 12.1665 12.3927 12.526 12.687 12.8209C12.9812 13.1159 13.3401 13.3381 13.7353 13.4699L15.0345 13.8913Z" fill="white"/>
</svg>
