<svg width="114" height="24" viewBox="0 0 114 24" fill="none" xmlns="http://www.w3.org/2000/svg">
<path d="M23.351 13.2127C23.9126 12.4208 23.9126 11.3606 23.351 10.5686L18.6553 3.946C18.325 3.48028 18.658 2.83594 19.229 2.83594H24.2709C24.4989 2.83594 24.7128 2.94645 24.8446 3.13244L29.8288 10.1618C30.5631 11.1974 30.5631 12.5839 29.8288 13.6195L24.8446 20.6489C24.7128 20.8349 24.4989 20.9454 24.2709 20.9454H19.229C18.658 20.9454 18.325 20.3011 18.6553 19.8353L23.351 13.2127Z" fill="#2282F1"/>
<path d="M12.4381 3.01172C13.2874 3.01172 14.0913 3.39543 14.6254 4.0558L19.6024 10.2095C20.4369 11.2413 20.4369 12.7158 19.6024 13.7476L14.6254 19.9013C14.0913 20.5617 13.2874 20.9454 12.4381 20.9454L2.81352 20.9454C1.25988 20.9454 0.000397907 19.6859 0.000397975 18.1322L0.000398513 5.82484C0.000398581 4.2712 1.25988 3.01172 2.81352 3.01172L12.4381 3.01172Z" fill="#069DDD"/>
<path d="M16.6744 11.588C16.7856 11.6263 16.8819 11.6988 16.9494 11.7952C17.0164 11.8895 17.0532 12.0018 17.0549 12.1174L17.0549 12.125C17.0549 12.2429 17.0183 12.3579 16.9502 12.4541C16.882 12.5503 16.7856 12.623 16.6744 12.662L15.2353 13.1312C14.7958 13.276 14.3962 13.5216 14.0685 13.8485C13.7407 14.1753 13.494 14.5743 13.348 15.0136L12.879 16.4551C12.84 16.5664 12.7674 16.6628 12.6712 16.7311C12.575 16.7993 12.46 16.8359 12.3421 16.8359C12.2242 16.8359 12.1093 16.7993 12.0131 16.7311C11.9169 16.6628 11.8443 16.5664 11.8053 16.4551L11.3382 15.0136C11.1887 14.5803 10.9411 14.1875 10.6147 13.8658C10.2882 13.5441 9.89183 13.3024 9.45647 13.1595L8.0174 12.6903C7.90614 12.6513 7.80975 12.5786 7.74155 12.4824C7.67335 12.3862 7.63672 12.2712 7.63672 12.1532C7.63672 12.0353 7.67335 11.9203 7.74155 11.8241C7.80975 11.7279 7.90614 11.6552 8.0174 11.6162L9.45647 11.147C9.89478 11.0017 10.2931 10.756 10.6198 10.4295C10.9465 10.1031 11.1925 9.70482 11.3382 9.26649L11.8053 7.82311L11.8129 7.79484C11.8527 7.68439 11.9256 7.58892 12.0217 7.52144C12.1178 7.45396 12.2323 7.41776 12.3497 7.41776C12.4671 7.41776 12.5816 7.45396 12.6777 7.52144C12.7737 7.58892 12.8466 7.68439 12.8865 7.79484L13.3536 9.23634C13.4989 9.67502 13.7445 10.0738 14.0708 10.4009C14.3971 10.728 14.7952 10.9744 15.2335 11.1206L16.6744 11.588Z" fill="white"/>
<path d="M41.459 19V4.9082H43.9785V16.8809H50.375V19H41.459ZM54.9941 19.1758C52.9238 19.1758 51.5273 17.8965 51.5273 16.0508V16.0312C51.5273 14.1953 52.9531 13.0918 55.4629 12.9355L58.168 12.7695V12.0566C58.168 11.0117 57.4844 10.377 56.2539 10.377C55.1016 10.377 54.3984 10.9141 54.2422 11.6758L54.2227 11.7637H51.9668L51.9766 11.6465C52.123 9.81055 53.7148 8.43359 56.3418 8.43359C58.9297 8.43359 60.5996 9.80078 60.5996 11.8809V19H58.168V17.4082H58.1094C57.5137 18.4922 56.3613 19.1758 54.9941 19.1758ZM53.9492 15.9531C53.9492 16.8027 54.6523 17.3203 55.7168 17.3203C57.1133 17.3203 58.168 16.3926 58.168 15.1621V14.3809L55.8047 14.5273C54.6035 14.6055 53.9492 15.123 53.9492 15.9434V15.9531ZM68.3438 19.2051C66.8496 19.2051 65.707 18.4629 65.1211 17.2422H65.0625V19H62.6309V4.9082H65.0625V10.4258H65.1211C65.707 9.18555 66.8887 8.43359 68.3535 8.43359C70.9512 8.43359 72.6211 10.4746 72.6211 13.8145V13.8242C72.6211 17.1543 70.9609 19.2051 68.3438 19.2051ZM67.6113 17.1543C69.1738 17.1543 70.1406 15.8848 70.1406 13.8242V13.8145C70.1406 11.7539 69.1641 10.4844 67.6113 10.4844C66.1172 10.4844 65.0625 11.793 65.0625 13.8145V13.8242C65.0625 15.8555 66.1074 17.1543 67.6113 17.1543ZM78.7344 19.2051C75.6289 19.2051 73.7539 17.1445 73.7539 13.8535V13.8438C73.7539 10.582 75.6582 8.43359 78.6172 8.43359C81.5762 8.43359 83.4121 10.5137 83.4121 13.6387V14.4199H76.166C76.2051 16.2363 77.2012 17.3105 78.7832 17.3105C79.9941 17.3105 80.7852 16.666 81.0195 15.9727L81.0391 15.9043H83.3145L83.2852 16.0117C82.9629 17.6035 81.4395 19.2051 78.7344 19.2051ZM78.6465 10.3379C77.3574 10.3379 76.3906 11.207 76.1953 12.7988H81.0488C80.873 11.1582 79.9355 10.3379 78.6465 10.3379ZM85.0527 19V4.9082H87.4844V19H85.0527Z" fill="#2282F1"/>
<path d="M89.7988 19V4.9082H92.3184V11.5195H92.3867L97.8457 4.9082H100.727L95.5215 11.1289L101.156 19H98.0898L93.7051 12.8086L92.3184 14.459V19H89.7988ZM103.52 7.16406C102.758 7.16406 102.162 6.55859 102.162 5.83594C102.162 5.09375 102.758 4.49805 103.52 4.49805C104.281 4.49805 104.867 5.09375 104.867 5.83594C104.867 6.55859 104.281 7.16406 103.52 7.16406ZM102.299 19V8.64844H104.73V19H102.299ZM110.648 19.2051C108.48 19.2051 107.455 18.3262 107.455 16.1973V10.5234H105.99V8.64844H107.455V6.02148H109.926V8.64844H111.85V10.5234H109.926V15.9922C109.926 17.0078 110.375 17.3301 111.264 17.3301C111.498 17.3301 111.684 17.3008 111.85 17.291V19.1172C111.566 19.1562 111.137 19.2051 110.648 19.2051Z" fill="#4C688B"/>
</svg>
