<svg width="112" height="20" viewBox="0 0 112 20" fill="none" xmlns="http://www.w3.org/2000/svg">
<path d="M108.03 16.6736C107.176 16.6736 106.407 16.4873 105.722 16.1147C105.037 15.7421 104.496 15.2072 104.099 14.5101C103.703 13.813 103.504 12.9717 103.504 11.9861C103.504 11.0126 103.703 10.1773 104.099 9.48019C104.508 8.78308 105.037 8.24824 105.686 7.87565C106.335 7.49104 107.014 7.29874 107.723 7.29874C108.576 7.29874 109.28 7.49104 109.832 7.87565C110.397 8.24824 110.818 8.75905 111.094 9.40807C111.383 10.0451 111.527 10.7722 111.527 11.5895C111.527 11.8179 111.515 12.0462 111.491 12.2746C111.467 12.4909 111.443 12.6532 111.419 12.7614H106.064C106.185 13.4104 106.455 13.8912 106.876 14.2037C107.296 14.5041 107.801 14.6544 108.39 14.6544C109.027 14.6544 109.67 14.4561 110.319 14.0594L111.203 15.664C110.746 15.9765 110.235 16.2228 109.67 16.4031C109.105 16.5834 108.558 16.6736 108.03 16.6736ZM106.046 11.0126H109.274C109.274 10.5198 109.153 10.1172 108.913 9.8047C108.685 9.48019 108.306 9.31793 107.777 9.31793C107.369 9.31793 107.002 9.46216 106.677 9.75061C106.353 10.0271 106.143 10.4477 106.046 11.0126Z" fill="#063464"/>
<path d="M93.6926 19.7745V7.51508H95.856L96.0363 8.39848H96.1084C96.4569 8.08598 96.8475 7.82757 97.2802 7.62325C97.7249 7.40691 98.1816 7.29874 98.6504 7.29874C99.7321 7.29874 100.585 7.71339 101.21 8.5427C101.835 9.36 102.148 10.4597 102.148 11.8419C102.148 12.8635 101.968 13.7349 101.607 14.4561C101.246 15.1772 100.778 15.7301 100.201 16.1147C99.636 16.4873 99.029 16.6736 98.38 16.6736C97.9954 16.6736 97.6228 16.5954 97.2622 16.4392C96.9016 16.2709 96.5651 16.0366 96.2526 15.7361L96.3427 17.1603V19.7745H93.6926ZM97.767 14.5101C98.2237 14.5101 98.6143 14.2998 98.9388 13.8791C99.2634 13.4585 99.4256 12.7914 99.4256 11.878C99.4256 10.2674 98.9088 9.46216 97.8752 9.46216C97.3583 9.46216 96.8475 9.73258 96.3427 10.2734V13.9332C96.5831 14.1496 96.8235 14.2998 97.0639 14.3839C97.3043 14.4681 97.5386 14.5101 97.767 14.5101Z" fill="#063464"/>
<path d="M88.7101 16.4572V7.51508H91.3603V16.4572H88.7101ZM90.0262 6.199C89.5814 6.199 89.2209 6.0728 88.9444 5.8204C88.668 5.568 88.5298 5.23147 88.5298 4.8108C88.5298 4.39014 88.668 4.05361 88.9444 3.80121C89.2209 3.54881 89.5814 3.42261 90.0262 3.42261C90.4709 3.42261 90.8314 3.54881 91.1079 3.80121C91.3843 4.05361 91.5225 4.39014 91.5225 4.8108C91.5225 5.23147 91.3843 5.568 91.1079 5.8204C90.8314 6.0728 90.4709 6.199 90.0262 6.199Z" fill="#063464"/>
<path d="M78.3754 19.7745V7.51508H80.5388L80.7191 8.39848H80.7912C81.1397 8.08598 81.5304 7.82757 81.963 7.62325C82.4077 7.40691 82.8645 7.29874 83.3332 7.29874C84.4149 7.29874 85.2683 7.71339 85.8933 8.5427C86.5182 9.36 86.8307 10.4597 86.8307 11.8419C86.8307 12.8635 86.6504 13.7349 86.2899 14.4561C85.9293 15.1772 85.4606 15.7301 84.8837 16.1147C84.3188 16.4873 83.7118 16.6736 83.0628 16.6736C82.6782 16.6736 82.3056 16.5954 81.945 16.4392C81.5844 16.2709 81.2479 16.0366 80.9354 15.7361L81.0256 17.1603V19.7745H78.3754ZM82.4498 14.5101C82.9065 14.5101 83.2971 14.2998 83.6217 13.8791C83.9462 13.4585 84.1084 12.7914 84.1084 11.878C84.1084 10.2674 83.5916 9.46216 82.558 9.46216C82.0412 9.46216 81.5304 9.73258 81.0256 10.2734V13.9332C81.2659 14.1496 81.5063 14.2998 81.7467 14.3839C81.9871 14.4681 82.2214 14.5101 82.4498 14.5101Z" fill="#063464"/>
<path d="M71.1921 16.4572V7.51508H73.3556L73.5358 9.08356H73.608C73.9325 8.48261 74.3231 8.03791 74.7798 7.74945C75.2365 7.44897 75.6933 7.29874 76.15 7.29874C76.4024 7.29874 76.6127 7.31677 76.781 7.35282C76.9492 7.37686 77.0935 7.41893 77.2137 7.47902L76.781 9.76864C76.6247 9.72057 76.4685 9.68451 76.3122 9.66047C76.168 9.63643 75.9997 9.62441 75.8074 9.62441C75.4709 9.62441 75.1163 9.75061 74.7437 10.003C74.3832 10.2434 74.0827 10.6641 73.8423 11.265V16.4572H71.1921Z" fill="#063464"/>
<path d="M65.8633 16.6736C65.0099 16.6736 64.2407 16.4873 63.5556 16.1147C62.8706 15.7421 62.3297 15.2072 61.9331 14.5101C61.5365 13.813 61.3381 12.9717 61.3381 11.9861C61.3381 11.0126 61.5365 10.1773 61.9331 9.48019C62.3417 8.78308 62.8706 8.24824 63.5196 7.87565C64.1686 7.49104 64.8477 7.29874 65.5568 7.29874C66.4102 7.29874 67.1133 7.49104 67.6661 7.87565C68.231 8.24824 68.6517 8.75905 68.9281 9.40807C69.2166 10.0451 69.3608 10.7722 69.3608 11.5895C69.3608 11.8179 69.3488 12.0462 69.3248 12.2746C69.3007 12.4909 69.2767 12.6532 69.2527 12.7614H63.8982C64.0184 13.4104 64.2888 13.8912 64.7095 14.2037C65.1301 14.5041 65.6349 14.6544 66.2239 14.6544C66.8609 14.6544 67.5039 14.4561 68.1529 14.0594L69.0363 15.664C68.5796 15.9765 68.0688 16.2228 67.5039 16.4031C66.939 16.5834 66.3921 16.6736 65.8633 16.6736ZM63.8802 11.0126H67.1073C67.1073 10.5198 66.9871 10.1172 66.7467 9.8047C66.5183 9.48019 66.1397 9.31793 65.6109 9.31793C65.2023 9.31793 64.8357 9.46216 64.5112 9.75061C64.1866 10.0271 63.9763 10.4477 63.8802 11.0126Z" fill="#063464"/>
<path d="M51.5263 19.7745V7.51508H53.6897L53.87 8.39848H53.9421C54.2906 8.08598 54.6813 7.82757 55.1139 7.62325C55.5586 7.40691 56.0154 7.29874 56.4841 7.29874C57.5658 7.29874 58.4192 7.71339 59.0442 8.5427C59.6691 9.36 59.9816 10.4597 59.9816 11.8419C59.9816 12.8635 59.8014 13.7349 59.4408 14.4561C59.0802 15.1772 58.6115 15.7301 58.0346 16.1147C57.4697 16.4873 56.8627 16.6736 56.2137 16.6736C55.8291 16.6736 55.4565 16.5954 55.0959 16.4392C54.7353 16.2709 54.3988 16.0366 54.0863 15.7361L54.1765 17.1603V19.7745H51.5263ZM55.6007 14.5101C56.0574 14.5101 56.4481 14.2998 56.7726 13.8791C57.0971 13.4585 57.2593 12.7914 57.2593 11.878C57.2593 10.2674 56.7425 9.46216 55.7089 9.46216C55.1921 9.46216 54.6813 9.73258 54.1765 10.2734V13.9332C54.4168 14.1496 54.6572 14.2998 54.8976 14.3839C55.138 14.4681 55.3724 14.5101 55.6007 14.5101Z" fill="#063464"/>
<path d="M43.9658 16.6736C42.9923 16.6736 42.2832 16.3551 41.8385 15.7181C41.4058 15.069 41.1895 14.1856 41.1895 13.0679V7.51508H43.8396V12.7253C43.8396 13.3623 43.9298 13.807 44.1101 14.0594C44.2904 14.2998 44.5728 14.42 44.9574 14.42C45.2939 14.42 45.5764 14.3419 45.8048 14.1856C46.0331 14.0294 46.2795 13.777 46.5439 13.4284V7.51508H49.1941V16.4572H47.0307L46.8324 15.2133H46.7783C46.4057 15.658 45.9971 16.0125 45.5524 16.2769C45.1076 16.5414 44.5788 16.6736 43.9658 16.6736Z" fill="#063464"/>
<path d="M35.0658 16.6736C34.2966 16.6736 33.5274 16.5293 32.7582 16.2409C32.001 15.9524 31.3219 15.5318 30.7209 14.9789L32.2353 13.158C32.656 13.5186 33.1247 13.813 33.6416 14.0414C34.1584 14.2698 34.6572 14.3839 35.1379 14.3839C35.6908 14.3839 36.0995 14.2818 36.3639 14.0775C36.6403 13.8731 36.7785 13.5967 36.7785 13.2481C36.7785 12.8756 36.6223 12.6051 36.3098 12.4369C36.0093 12.2566 35.6007 12.0583 35.0838 11.8419L33.5514 11.1929C33.1548 11.0246 32.7762 10.8023 32.4156 10.5258C32.0551 10.2374 31.7606 9.88282 31.5322 9.46216C31.3039 9.04149 31.1897 8.54871 31.1897 7.98382C31.1897 7.33479 31.364 6.74586 31.7125 6.21703C32.0731 5.68819 32.5659 5.26752 33.1909 4.95503C33.8279 4.64254 34.555 4.48629 35.3723 4.48629C36.0454 4.48629 36.7184 4.6185 37.3915 4.88292C38.0646 5.14734 38.6535 5.53194 39.1583 6.03674L37.8062 7.71339C37.4215 7.41292 37.0369 7.18456 36.6523 7.02831C36.2677 6.86004 35.841 6.77591 35.3723 6.77591C34.9156 6.77591 34.549 6.87206 34.2726 7.06437C34.0081 7.24465 33.8759 7.50306 33.8759 7.83959C33.8759 8.20016 34.0442 8.47059 34.3807 8.65088C34.7293 8.83116 35.156 9.02346 35.6608 9.22779L37.1752 9.84076C37.8843 10.1292 38.4492 10.5258 38.8698 11.0306C39.2905 11.5354 39.5008 12.2025 39.5008 13.0318C39.5008 13.6808 39.3266 14.2818 38.978 14.8347C38.6295 15.3875 38.1247 15.8322 37.4636 16.1688C36.8026 16.5053 36.0033 16.6736 35.0658 16.6736Z" fill="#063464"/>
<path fill-rule="evenodd" clip-rule="evenodd" d="M22.6891 4.20742C22.7475 4.25136 22.7826 4.31978 22.7831 4.39264C22.7837 4.46662 22.7503 4.53559 22.6919 4.58064C21.3008 5.66247 20.3764 6.99737 19.7662 8.50414C19.729 8.59925 19.6361 8.661 19.5338 8.65988C19.4314 8.65877 19.3407 8.5937 19.3063 8.49803C18.8424 7.27103 18.1176 6.00343 16.3467 4.57397C16.2921 4.52947 16.2604 4.46216 16.261 4.39152C16.2616 4.32088 16.2938 4.25414 16.3489 4.2102C17.651 3.1573 18.6132 1.82461 19.2868 0.253319C19.3257 0.159875 19.418 0.0998062 19.5193 0.102031C19.6205 0.104256 19.7101 0.168221 19.7446 0.262777C20.3364 1.81349 21.283 3.14951 22.6891 4.20742Z" fill="#1A7AE6"/>
<path d="M15.7902 1.20659C15.7808 1.35248 15.7321 1.49593 15.6454 1.62047C15.2992 2.11798 14.8991 2.69231 14.5365 3.21276L14.5318 3.21944L14.5317 3.21971L14.5283 3.22456C14.1974 3.69957 13.8984 4.12872 13.7012 4.41217C13.5492 4.63006 13.2993 4.7608 13.0333 4.7608H7.62158C7.35388 4.7608 7.10398 4.89153 6.9519 5.1112C6.74155 5.41545 6.43094 5.86375 6.17391 6.23472L6.03853 6.43012C5.94204 6.56973 5.89379 6.7318 5.89378 6.89387C5.89379 7.05594 5.94204 7.21801 6.03853 7.35762C6.42365 7.91308 7.10533 8.89752 7.80985 9.91494L7.81253 9.91881C8.36151 10.7116 8.92414 11.5241 9.37095 12.1691C9.45815 12.2949 9.5065 12.4401 9.51486 12.5874C9.51581 12.6041 9.51624 12.6208 9.51616 12.6374C9.51558 12.7653 9.48491 12.8933 9.42342 13.0105C9.2829 13.2791 9.00453 13.4472 8.70215 13.4472H4.78897C4.52217 13.4472 4.27225 13.3164 4.12017 13.0968C3.66583 12.4407 2.6487 10.9724 1.71812 9.62904L1.71762 9.62833C1.08547 8.71579 0.493322 7.86099 0.144743 7.35772C0.048237 7.21808 -1.07201e-05 7.05597 1.78662e-09 6.89387C-9.89446e-06 6.73176 0.0482378 6.56966 0.144743 6.43001C0.488099 5.93429 1.06778 5.09749 1.68924 4.20039L1.72262 4.15221C2.65197 2.81064 3.66656 1.34603 4.12017 0.690989C4.27225 0.471318 4.52217 0.340576 4.78897 0.340576H14.9775C15.2807 0.340576 15.5591 0.508669 15.6996 0.778145C15.7459 0.866525 15.7746 0.960971 15.7861 1.05679C15.7921 1.10657 15.7935 1.15673 15.7902 1.20659Z" fill="#3F8FEC"/>
<path d="M19.1464 13.4469C19.1464 13.609 19.0982 13.7711 19.0017 13.9108C18.6581 14.4068 18.078 15.2441 17.4562 16.1418L17.3998 16.2232C16.477 17.5553 15.4759 19.0004 15.0262 19.6498C14.8741 19.8695 14.6242 20.0002 14.3574 20.0002H4.16892C3.86565 20.0002 3.58728 19.8321 3.44676 19.5627C3.40015 19.4736 3.37136 19.3783 3.36001 19.2816C3.35425 19.2326 3.35298 19.1832 3.35616 19.1341C3.36561 18.9883 3.4143 18.8448 3.50101 18.7203C3.84754 18.2223 4.24813 17.6473 4.61101 17.1264L4.61631 17.1188C4.94795 16.6428 5.24766 16.2126 5.44516 15.9286C5.59724 15.7107 5.84714 15.58 6.11306 15.58H11.5248C11.7925 15.58 12.0424 15.4493 12.1945 15.2296C12.4054 14.9246 12.717 14.4748 12.9744 14.1033L13.1079 13.9107C13.2013 13.7754 13.2496 13.6191 13.2525 13.4621C13.2527 13.4523 13.2527 13.4424 13.2525 13.4326C13.2497 13.2753 13.2015 13.1187 13.1079 12.9832C12.7231 12.4283 12.0424 11.4453 11.3387 10.4289L11.3271 10.4123C10.7803 9.62255 10.2204 8.81403 9.77545 8.17175C9.67923 8.03288 9.63031 7.87049 9.63023 7.70758C9.63014 7.57833 9.66081 7.44875 9.72298 7.33031C9.8635 7.06172 10.1419 6.89364 10.4442 6.89364H14.3574C14.6242 6.89364 14.8741 7.02437 15.0262 7.24404C15.481 7.90071 16.4995 9.37098 17.4307 10.7153C18.0621 11.6268 18.6534 12.4803 19.0017 12.9831C19.0789 13.0949 19.1252 13.2211 19.1406 13.3501C19.1445 13.3823 19.1464 13.4146 19.1464 13.4469Z" fill="#3F8FEC"/>
</svg>
