<svg width="80" height="24" viewBox="0 0 80 24" fill="none" xmlns="http://www.w3.org/2000/svg">
<path d="M35.1077 10.8336L33.3328 10.019L33.3088 10.007C32.0417 9.39697 31.2769 9.02838 31.2769 8.00738C31.2769 6.79194 32.4233 6.36068 33.4056 6.36068C34.6045 6.36068 35.6477 6.93661 36.4245 8.0258C36.4946 8.1244 36.5996 8.18799 36.7194 8.20642C36.8383 8.22392 36.9608 8.19259 37.0567 8.11887L38.5763 6.94767C38.7587 6.8076 38.8039 6.55512 38.6832 6.36161C37.5727 4.58499 35.5998 3.52344 33.4056 3.52344C30.3471 3.52344 28.1271 5.44934 28.1271 8.10321C28.1271 10.7571 30.0798 11.8702 31.9901 12.7539L33.7447 13.5713C35.1325 14.2172 35.9177 14.6347 35.9177 15.7008C35.9177 16.8766 34.9501 17.636 33.4526 17.636C31.9551 17.636 30.7101 16.8942 29.6181 15.3691C29.5472 15.2705 29.4421 15.206 29.3223 15.1876C29.2025 15.1691 29.0837 15.1996 28.9878 15.2733L27.4415 16.4482C27.26 16.5855 27.212 16.8361 27.3291 17.0305C28.6459 19.2181 30.8871 20.4732 33.4775 20.4732C36.7692 20.4732 39.0674 18.4708 39.0674 15.605C39.0674 14.4826 38.7173 13.5501 37.9985 12.7539C37.3755 12.0647 36.4568 11.4546 35.1077 10.8336V10.8336Z" fill="#303236"/>
<path d="M46.9496 7.85026H44.3168V5.26642C44.3168 5.02131 44.1177 4.82227 43.8726 4.82227H41.6591C41.414 4.82227 41.2149 5.02131 41.2149 5.26642V7.85026H39.7359C39.4907 7.85026 39.2917 8.0493 39.2917 8.29441V10.1475C39.2917 10.3926 39.4907 10.5917 39.7359 10.5917H41.2149V16.0856C41.2149 18.9145 42.8589 20.4727 45.8437 20.4727C46.2326 20.4727 46.615 20.4451 47.0141 20.388C47.2306 20.3566 47.3937 20.1677 47.3937 19.9484V18.0575C47.3937 17.935 47.3421 17.817 47.2527 17.7332C47.1633 17.6502 47.0426 17.6069 46.9182 17.6152C46.7118 17.63 46.533 17.6364 46.3727 17.6364C44.8936 17.6364 44.3177 17.1407 44.3177 15.8699V10.5926H46.9505C47.1956 10.5926 47.3947 10.3936 47.3947 10.1484V8.29534C47.3947 8.05022 47.1956 7.85118 46.9505 7.85118L46.9496 7.85026Z" fill="#303236"/>
<path d="M54.7342 7.72553C51.2324 7.72553 48.489 10.5001 48.489 14.0423C48.489 17.5845 51.2775 20.3351 54.9747 20.3351C56.7238 20.3351 58.3484 19.7002 59.6717 18.4995C59.7851 18.3972 59.8044 18.2249 59.7169 18.0987L58.7041 16.64C58.6553 16.5699 58.5788 16.5229 58.494 16.5119C58.4083 16.5008 58.3217 16.5257 58.2553 16.581C57.2426 17.4278 56.2234 17.8231 55.0466 17.8231C53.1335 17.8231 51.7383 16.745 51.3669 14.9979H59.8652C60.009 14.9979 60.1352 14.8956 60.1647 14.7555C60.2403 14.3961 60.3306 13.8479 60.3306 13.2729C60.3306 11.7331 59.7666 10.325 58.7419 9.3068C57.7153 8.28671 56.2925 7.72461 54.7342 7.72461V7.72553ZM51.4333 12.7126C51.8572 11.1507 53.1151 10.1417 54.6374 10.1417C55.9764 10.1417 57.3873 10.9378 57.52 12.7172C57.52 12.7292 57.5153 12.7375 57.5117 12.7412C57.508 12.7458 57.5006 12.7504 57.4905 12.7504H51.4628C51.4508 12.7504 51.4434 12.7439 51.4388 12.7384C51.4351 12.7329 51.4305 12.7237 51.4333 12.7126V12.7126Z" fill="#303236"/>
<path d="M64.5552 4.82227H62.4004C62.1455 4.82227 61.9388 5.0289 61.9388 5.28381V20.0112C61.9388 20.2661 62.1455 20.4727 62.4004 20.4727H64.5552C64.8101 20.4727 65.0167 20.2661 65.0167 20.0112V5.2838C65.0167 5.0289 64.8101 4.82227 64.5552 4.82227Z" fill="#303236"/>
<path d="M72.9712 7.72553C69.4022 7.72553 66.6063 10.49 66.6063 14.0183C66.6063 17.5467 69.4022 20.3351 72.9712 20.3351C74.7037 20.3351 76.32 19.6818 77.5226 18.4949C78.7234 17.3099 79.385 15.7203 79.385 14.0174C79.385 10.4891 76.5679 7.72461 72.9712 7.72461V7.72553ZM76.5117 14.0423C76.5117 16.1433 74.9894 17.7273 72.9712 17.7273C70.9531 17.7273 69.4547 16.1433 69.4547 14.0423C69.4547 11.9413 70.977 10.3094 72.9952 10.3094C75.0133 10.3094 76.5117 11.9137 76.5117 14.0423Z" fill="#303236"/>
<path d="M11.9999 6.61072C11.1346 6.61072 10.4333 5.90947 10.4333 5.0442V1.56652C10.4333 0.701249 11.1346 0 11.9999 0C12.8653 0 13.5665 0.701249 13.5665 1.56652V5.0442C13.5665 5.90947 12.8653 6.61072 11.9999 6.61072V6.61072Z" fill="#7A75FF"/>
<path d="M16.9189 8.64746C16.518 8.64746 16.1172 8.49449 15.8112 8.18856C15.1993 7.57669 15.1993 6.58518 15.8112 5.97331L17.0405 4.74405C17.6524 4.13219 18.644 4.13219 19.2559 4.74405C19.8678 5.35592 19.8678 6.34744 19.2559 6.9593L18.0266 8.18856C17.7206 8.49449 17.3197 8.64746 16.9189 8.64746V8.64746Z" fill="#7A75FF"/>
<path d="M22.4343 13.5666H18.9565C18.0912 13.5666 17.3899 12.8654 17.3899 12.0001C17.3899 11.1348 18.0912 10.4336 18.9565 10.4336H22.4343C23.2996 10.4336 24.0009 11.1348 24.0009 12.0001C24.0009 12.8654 23.2996 13.5666 22.4343 13.5666Z" fill="#7A75FF"/>
<path d="M18.1482 19.7139C17.7473 19.7139 17.3465 19.5609 17.0405 19.255L15.8112 18.0257C15.1993 17.4138 15.1993 16.4223 15.8112 15.8105C16.4231 15.1986 17.4147 15.1986 18.0266 15.8105L19.2559 17.0397C19.8678 17.6516 19.8678 18.6431 19.2559 19.255C18.9499 19.5609 18.5491 19.7139 18.1482 19.7139V19.7139Z" fill="#7A75FF"/>
<path d="M11.9999 23.9994C11.1346 23.9994 10.4333 23.2981 10.4333 22.4329V18.9552C10.4333 18.0899 11.1346 17.3887 11.9999 17.3887C12.8653 17.3887 13.5665 18.0899 13.5665 18.9552V22.4329C13.5665 23.2981 12.8653 23.9994 11.9999 23.9994Z" fill="#7A75FF"/>
<path d="M5.85272 19.7139C5.45186 19.7139 5.051 19.5609 4.74505 19.255C4.13316 18.6431 4.13316 17.6516 4.74505 17.0397L5.97437 15.8105C6.58626 15.1986 7.57782 15.1986 8.18971 15.8105C8.8016 16.4223 8.8016 17.4138 8.18971 18.0257L6.9604 19.255C6.65445 19.5609 6.25359 19.7139 5.85272 19.7139V19.7139Z" fill="#7A75FF"/>
<path d="M5.04443 13.5666H1.56659C0.70128 13.5666 0 12.8654 0 12.0001C0 11.1348 0.70128 10.4336 1.56659 10.4336H5.04443C5.90974 10.4336 6.61102 11.1348 6.61102 12.0001C6.61102 12.8654 5.90974 13.5666 5.04443 13.5666V13.5666Z" fill="#7A75FF"/>
<path d="M7.08204 8.64746C6.68117 8.64746 6.28031 8.49449 5.97437 8.18856L4.74505 6.9593C4.13316 6.34744 4.13316 5.35592 4.74505 4.74405C5.35694 4.13219 6.3485 4.13219 6.9604 4.74405L8.18971 5.97331C8.8016 6.58518 8.8016 7.57669 8.18971 8.18856C7.88376 8.49449 7.4829 8.64746 7.08204 8.64746V8.64746Z" fill="#7A75FF"/>
<path d="M11.9998 13.57C12.8675 13.57 13.571 12.8666 13.571 11.9989C13.571 11.1312 12.8675 10.4277 11.9998 10.4277C11.132 10.4277 10.4286 11.1312 10.4286 11.9989C10.4286 12.8666 11.132 13.57 11.9998 13.57Z" fill="#7A75FF"/>
</svg>
